<svg width="140" height="34" viewBox="0 0 140 34" fill="none" xmlns="http://www.w3.org/2000/svg">
<g clip-path="url(#clip0_226_148)">
<path d="M51.381 26.8542H54.8984L48.6777 6.54333H44.5498L38.3291 26.8542H41.8465L43.2076 22.1001H49.9932L51.381 26.8542ZM46.5557 9.46135H46.672C47.1369 11.95 48.02 15.4014 49.1778 19.2665H44.0191C45.1817 15.4045 46.0906 11.95 46.5557 9.46135Z" fill="#F0F0F0"/>
<path d="M85.1918 19.3299C85.1918 15.2392 83.1859 12.2069 78.6804 12.2069C74.4654 12.2069 71.791 15.0962 71.791 19.5587C71.791 24.1931 74.1747 27.1968 78.7228 27.1968C81.7327 27.1968 84.237 25.9348 85.1046 23.5638C85.2861 23.0677 85.3542 22.772 85.411 22.2479C85.4163 22.1989 85.4208 22.0916 85.4208 22.0916H82.1708C82.1708 22.0916 82.1576 22.2245 82.1529 22.2479C81.8937 23.5351 80.6281 24.5077 78.7228 24.5077C76.6456 24.5077 75.2211 22.7913 75.2211 20.4742H85.1503C85.1794 20.1024 85.1918 19.7019 85.1918 19.3299ZM81.7327 18.3001H75.1921C75.1921 16.355 76.3549 14.5527 78.5932 14.5527C80.7734 14.5527 81.7617 16.1832 81.7327 18.3001Z" fill="#F0F0F0"/>
<path d="M94.8379 27.1924C99.6052 27.1924 102.192 24.2175 102.483 19.9264L102.525 19.2685H98.9365C98.7622 22.5297 97.425 24.2746 94.9832 24.2746C92.2508 24.2746 90.9137 21.9002 90.9137 17.4664V15.5829C90.9137 11.1203 92.1926 8.9749 94.9832 8.9749C97.396 8.9749 98.7622 10.7484 98.9365 13.9524H102.536L102.512 13.4088C102.134 8.40272 99.4307 6.05688 95.0123 6.05688C89.8381 6.05688 87.251 9.71864 87.251 15.6402V17.6094C87.251 23.5309 89.7508 27.1924 94.8379 27.1924Z" fill="#F0F0F0"/>
<path d="M111.292 27.1968C115.42 27.1968 118.356 24.3932 118.356 19.7019C118.356 15.0105 115.42 12.2069 111.292 12.2069C107.164 12.2069 104.229 15.0105 104.229 19.7019C104.229 24.3361 107.164 27.1968 111.292 27.1968ZM111.292 24.565C109.083 24.565 107.775 22.8199 107.775 19.7019C107.775 16.5838 109.083 14.8387 111.292 14.8387C113.501 14.8387 114.81 16.6124 114.81 19.7019C114.81 22.8199 113.501 24.565 111.292 24.565Z" fill="#F0F0F0"/>
<path d="M124.6 6.54675H121.199V10.0015H124.6V6.54675ZM121.199 26.854H124.6V24.2793V12.5506H119.038V15.1254H121.199V24.2793V26.854Z" fill="#F0F0F0"/>
<path fill-rule="evenodd" clip-rule="evenodd" d="M59.7394 12.5502H56.5127V32.4318H59.9138V27.309V25.5387C61.3918 26.1657 62.4091 27.1968 64.0706 27.1968C67.9368 27.1968 70.1168 24.1645 70.1168 19.6732C70.1168 15.2965 68.0239 12.2069 64.2159 12.2069C62.4875 12.2069 61.2135 13.3436 59.7394 14.0939V12.5502ZM59.8265 19.3586V20.0738C59.8265 22.7913 61.1347 24.565 63.1986 24.565C65.3205 24.565 66.5705 22.6483 66.5705 19.6732C66.5705 16.7268 65.4078 14.8387 63.2276 14.8387C61.1929 14.8387 59.8265 16.4694 59.8265 19.3586Z" fill="#F0F0F0"/>
<path d="M130.236 12.5502H126.98V26.8535H130.381V19.1297C130.381 17.3847 131.108 14.9817 133.724 14.9817C135.032 14.9817 136.282 15.6684 136.282 18.386V26.8535H139.713V18.0142C139.713 15.6398 139.219 14.2666 138.289 13.3798C137.358 12.4931 136.079 12.2069 134.945 12.2069C133.05 12.2069 131.71 13.3436 130.236 14.0939V12.5502Z" fill="#F0F0F0"/>
<mask id="mask0_226_148" style="mask-type:alpha" maskUnits="userSpaceOnUse" x="0" y="0" width="35" height="34">
<path d="M34.1839 16.9608C34.1839 7.86975 26.695 0.5 17.4572 0.5C8.21927 0.5 0.730469 7.86975 0.730469 16.9608C0.730469 26.0518 8.21927 33.4216 17.4572 33.4216C26.695 33.4216 34.1839 26.0518 34.1839 16.9608Z" fill="url(#paint0_radial_226_148)"/>
</mask>
<g mask="url(#mask0_226_148)">
<path d="M34.1839 16.9608C34.1839 7.86975 26.695 0.5 17.4572 0.5C8.21927 0.5 0.730469 7.86975 0.730469 16.9608C0.730469 26.0518 8.21927 33.4216 17.4572 33.4216C26.695 33.4216 34.1839 26.0518 34.1839 16.9608Z" fill="url(#paint1_radial_226_148)"/>
<path d="M28.8323 11.8228C28.7623 12.2257 28.6803 12.421 28.5844 12.6473L28.5842 12.6478C28.4806 12.8928 28.363 13.171 28.2566 13.7229C28.2143 13.9438 28.1932 14.106 28.1748 14.2488L28.1735 14.2577L28.1725 14.266C28.1429 14.4947 28.1231 14.6489 28.0286 14.9232C27.952 15.1471 27.8238 15.5209 27.5151 15.9235C27.2658 16.2492 26.8484 16.7944 26.2915 16.8597C26.2432 16.8629 26.1421 16.8679 26.1008 16.8471C24.521 16.0532 23.1636 15.4666 22.6938 15.335C22.1473 15.1826 22.2173 14.01 22.2791 12.9755C22.3069 12.5131 22.333 12.076 22.311 11.7016C22.2342 10.3956 21.9993 8.96616 20.8435 8.26925C20.1535 7.85338 19.2635 7.73132 18.4131 7.72954C18.5707 7.65574 18.7465 7.55549 18.9379 7.44585L18.9438 7.44248C19.4445 7.15719 20.0661 6.80288 20.6838 6.74061C20.8857 6.72091 21.0842 6.69803 21.28 6.67656C22.525 6.53782 23.6008 6.41859 24.7353 6.80093C25.2497 6.97462 26.3047 7.5539 26.5771 8.09166C26.7689 8.47133 27.0925 8.76727 27.7381 9.3579C28.0742 9.66554 28.2956 9.84456 28.4577 9.97549L28.4651 9.98153C28.6926 10.1657 28.7375 10.2042 28.8053 10.3403C29.0144 10.7599 28.9381 11.2055 28.8323 11.8228Z" fill="#F0F0F0"/>
<path d="M23.0851 17.1915C23.1599 17.2168 23.1878 17.3063 23.1444 17.3712C22.9756 17.6231 22.7824 17.9687 22.5507 18.3913C22.442 18.5906 22.3391 18.7786 22.2527 18.9253C21.9466 19.4427 21.9217 19.8781 21.9022 20.2276C21.8811 20.5931 21.8624 20.7609 21.6405 20.9066C21.4573 21.0274 21.2696 21.0677 19.9688 21.2627C19.7419 21.2973 19.6411 21.3406 19.5526 21.3785C19.5284 21.3888 19.5044 21.3991 19.477 21.4092C19.4019 21.4369 19.3283 21.3739 19.3328 21.2953C19.3431 21.1108 19.3497 20.8803 19.3505 20.5904V20.5349C19.3573 20.284 19.3467 20.0805 19.3375 19.9164C19.3204 19.5896 19.3182 19.4519 19.4067 19.3096C19.5154 19.1377 19.6002 19.0852 19.7395 18.9983C19.9341 18.878 20.2009 18.7124 20.5957 18.1784C20.8056 17.8956 20.8521 17.7423 20.8811 17.6098C20.8937 17.5548 20.8982 17.5342 21.0598 17.4138C21.2305 17.2862 21.751 16.8982 22.4171 17.0084C22.6014 17.0391 22.8361 17.1068 23.0851 17.1915Z" fill="#F0F0F0"/>
<path d="M17.9096 23.0932C17.8813 23.1296 17.8481 23.1465 17.8003 23.1488C17.6644 23.1544 17.5688 23.1213 17.5056 23.0464C17.3714 22.8857 17.3894 22.5628 17.4208 22.374L17.9709 22.2297C18.014 22.5163 18.0341 22.9337 17.9096 23.0932Z" fill="#F0F0F0"/>
<path d="M17.9541 21.1397C17.9449 21.2187 17.9348 21.3075 17.9351 21.4005C17.9358 21.4351 17.9362 21.4701 17.9373 21.5039C17.9384 21.5925 17.942 21.733 17.9295 21.7969C17.7577 21.8584 17.611 21.8584 17.4181 21.8551C17.4152 21.8002 17.4188 21.7184 17.421 21.6633C17.422 21.6207 17.4244 21.5783 17.4249 21.5378C17.4255 21.4929 17.4249 21.4488 17.4249 21.4046C17.4242 21.3004 17.4228 21.1298 17.4487 21.0796C17.5005 21.0721 17.5535 21.0609 17.6103 21.0482C17.724 21.024 17.8724 20.9932 17.9669 21.0072C17.9654 21.0434 17.9596 21.0971 17.9541 21.1397Z" fill="#F0F0F0"/>
<path d="M16.9361 22.9267C16.9096 23.2042 16.8225 23.5473 16.558 23.5995C16.439 23.6236 16.3815 23.5883 16.3453 23.5548C16.1666 23.3919 16.1381 22.8997 16.163 22.5477C16.282 22.5498 16.438 22.5236 16.6226 22.4885C16.7352 22.4665 16.8474 22.442 16.9366 22.4218C16.9469 22.552 16.9543 22.7379 16.9361 22.9267Z" fill="#F0F0F0"/>
<path d="M16.8106 21.9305L16.2139 22.1365C16.2442 21.9085 16.2845 21.5877 16.2988 21.3746C16.3091 21.2245 16.3505 21.1786 16.3624 21.1686C16.3664 21.1653 16.3743 21.1582 16.3965 21.1582C16.3999 21.1582 16.4033 21.1587 16.4071 21.1587L16.4198 21.1605L16.7967 21.1403C16.8128 21.3147 16.8128 21.6977 16.8106 21.9305Z" fill="#F0F0F0"/>
<path d="M15.8469 21.7479C15.8132 21.8363 15.7733 22.0866 15.7484 22.2628L15.001 22.2404C15.0432 22.0126 15.1016 21.7807 15.1658 21.596C15.2307 21.4124 15.3006 21.2747 15.365 21.236C15.44 21.1917 15.6051 21.1818 15.7063 21.2667C15.8707 21.4048 15.9161 21.5627 15.8469 21.7479Z" fill="#F0F0F0"/>
<path d="M15.5683 23.9994C15.5105 24.0772 15.4461 24.1168 15.3664 24.1251C15.2851 24.1342 15.2218 24.1163 15.1713 24.0698C14.9366 23.8565 14.9557 23.1579 14.9644 22.822C15.2743 22.7525 15.6089 22.6934 15.7676 22.6843C15.7913 22.9655 15.7982 23.6915 15.5683 23.9994Z" fill="#F0F0F0"/>
<path d="M14.5925 22.2205C14.5561 22.3164 14.5208 22.4068 14.4941 22.487C14.4072 22.5138 14.1414 22.4904 13.8701 22.4315L14.0567 21.2738C14.3632 21.1938 14.7187 21.1681 14.8047 21.2577C14.9179 21.376 14.6904 21.9683 14.5925 22.2205Z" fill="#F0F0F0"/>
<path d="M14.2539 24.1756C14.1089 24.3514 13.8915 24.4336 13.5882 24.4304C13.3784 24.427 13.3034 24.3486 13.2659 24.2898C13.0975 24.0274 13.2623 23.4088 13.4274 23.0137L14.4399 23.0735C14.4502 23.1428 14.4587 23.2273 14.4626 23.3192C14.4738 23.6004 14.4379 23.9506 14.2539 24.1756Z" fill="#F0F0F0"/>
<path d="M22.6214 15.7746C21.7099 15.5206 21.7883 14.2089 21.8642 12.9412C21.8911 12.4927 21.9165 12.0685 21.8958 11.7218C21.8258 10.5353 21.623 9.24294 20.6532 8.65799C19.6101 8.03028 17.9038 8.17328 16.8509 8.3051C16.85 8.30528 16.8491 8.30581 16.8482 8.30599C16.8477 8.30599 16.8473 8.30599 16.8469 8.30617C16.4613 8.42113 16.1006 8.49563 15.8209 8.48108C15.1997 8.4495 14.7163 8.19209 14.2907 7.96623C13.9586 7.78917 13.6689 7.63623 13.3961 7.63623C13.3817 7.63623 13.3665 7.63623 13.3516 7.63676C12.5354 7.68892 12.1602 7.88515 11.8195 8.18446C11.7339 8.25897 11.6293 8.47525 11.2871 9.44555C11.1144 9.93594 11.0825 10.2042 11.0504 10.465C11.0216 10.7033 10.9922 10.9483 10.8635 11.3138C10.7739 11.5661 10.7077 11.7836 10.6437 11.9933C10.4749 12.5506 10.3415 12.9895 9.94075 13.5115C9.8937 13.5732 9.83547 13.6641 9.76804 13.7675C9.67718 13.9084 9.56468 14.0835 9.4163 14.2863C9.31156 14.4291 9.07106 14.9636 9.08422 15.1265C9.10387 15.3859 9.18951 15.5468 9.28758 15.7347C9.38511 15.9199 9.49617 16.1297 9.51636 16.4192L9.51979 16.4662C9.55549 16.9256 9.48896 17.156 8.60105 17.9365C8.03334 18.4365 7.63004 18.918 7.35799 19.2714C7.33401 19.3027 7.3652 19.349 7.40486 19.3458C7.41406 19.3445 7.42325 19.344 7.43172 19.344C7.44885 19.3426 7.4658 19.3421 7.48274 19.3421C7.49969 19.3421 7.51682 19.3426 7.53358 19.3433C7.55071 19.344 7.56712 19.3453 7.58388 19.3477C7.7986 19.3719 8.00792 19.4613 8.15899 19.6153C8.18532 19.6421 8.22624 19.6494 8.26122 19.6355C8.4058 19.5763 8.56464 19.586 8.71644 19.6C8.90393 19.6171 9.09323 19.6722 9.21763 19.7913C9.25513 19.8273 9.30867 19.8456 9.35988 19.834C9.50681 19.8012 9.66095 19.8042 9.80392 19.8553C9.91678 19.8967 10.0116 19.962 10.087 20.0441C10.1396 20.1016 10.233 20.1126 10.299 20.0707C10.3401 20.0446 10.3853 20.0226 10.4356 20.006C10.6284 19.9416 10.8416 19.9783 11.0288 20.0445C11.1209 20.0771 11.2175 20.1062 11.3006 20.1609C11.4533 20.2609 11.5466 20.4071 11.6061 20.5705C11.6398 20.6626 11.7658 20.6945 11.8422 20.6319C11.9796 20.5194 12.0883 20.5004 12.1979 20.5483C12.2538 20.5732 12.2928 20.6072 12.3189 20.65C12.3645 20.7243 12.4574 20.7855 12.5423 20.7621C12.8406 20.6803 13.2142 20.7229 13.4848 20.8656C13.5804 20.9149 13.6743 20.9903 13.7428 21.1042C13.743 21.1042 13.743 21.1042 13.743 21.1044C13.7432 21.1049 13.7437 21.1047 13.7437 21.1042L13.7516 21.0536C13.7552 21.0307 13.7716 21.0118 13.7942 21.0048L13.8569 20.9858C14.0047 20.9395 14.758 20.7259 15.0509 21.0295C15.0636 21.0419 15.0856 21.0432 15.0978 21.0302C15.1377 20.9871 15.1701 20.9635 15.1908 20.9518C15.3816 20.8379 15.7088 20.8308 15.9264 21.0142C15.9702 21.0504 16.0413 21.0373 16.0742 20.9912C16.0946 20.963 16.1177 20.9379 16.1437 20.9165C16.2201 20.8515 16.3169 20.8205 16.4242 20.8271L16.8379 20.8051C16.942 20.7994 17.2654 20.7777 17.3672 20.7566C17.375 20.755 17.3829 20.7536 17.391 20.7524C17.4341 20.7458 17.4853 20.735 17.5389 20.724C17.7395 20.6809 17.9672 20.6324 18.1542 20.7174C18.3338 20.7992 18.311 21.0006 18.2894 21.1782C18.2809 21.2502 18.2717 21.3254 18.2725 21.3969C18.2737 21.4303 18.2744 21.4638 18.275 21.4981C18.2777 21.6512 18.2809 21.7926 18.2501 21.9012C18.2501 21.9013 18.2501 21.9017 18.2501 21.9019C18.2501 21.902 18.2501 21.9022 18.2501 21.9024L18.269 21.9865C18.2699 21.9897 18.2708 21.9938 18.2719 21.9987C18.2889 22.0757 18.3729 22.1187 18.4412 22.0777C18.5854 21.9911 18.7371 21.8786 18.7828 21.8139C18.7862 21.8089 18.7889 21.8038 18.7909 21.7981C18.7972 21.7818 18.8089 21.7464 18.8217 21.6726C18.8473 21.5213 18.876 21.2138 18.8785 20.5895C18.8785 20.5565 18.8785 20.5329 18.8792 20.5219C18.8845 20.2902 18.8753 20.1043 18.8661 19.9401C18.8491 19.6016 18.8352 19.3353 19.006 19.0642C19.1722 18.8004 19.3335 18.7007 19.4886 18.604C19.6689 18.4928 19.8724 18.3664 20.2151 17.9038C20.3832 17.676 20.4039 17.5841 20.4203 17.5107C20.4576 17.3388 20.5153 17.2353 20.7748 17.0423C20.986 16.8853 21.6288 16.4059 22.4959 16.5494C22.7802 16.597 23.2412 16.7462 23.6961 16.9225C23.6963 16.9227 23.6965 16.9227 23.6968 16.9227C23.697 16.9227 23.6972 16.9227 23.6974 16.9227C23.7143 16.9277 23.7318 16.9335 23.7478 16.9419C23.7536 16.9449 23.7596 16.9477 23.7657 16.9502C24.172 17.1099 24.5674 17.2882 24.8207 17.4307C24.8797 17.4638 24.9552 17.4447 24.9967 17.3916C25.0796 17.2857 25.1701 17.2243 25.2676 17.1667C25.3042 17.1448 25.3324 17.1282 25.3592 17.1056C25.3684 17.098 25.3774 17.0906 25.3863 17.0835C25.462 17.0231 25.4618 16.8942 25.3751 16.8502C24.1529 16.2283 23.0018 15.8811 22.6214 15.7746ZM13.9357 16.0507C13.6537 17.265 11.7423 18.5997 10.8736 18.5997H10.8564C10.8427 18.599 10.8276 18.5978 10.8114 18.5951C10.7949 18.5926 10.7773 18.5887 10.7585 18.5836C10.7493 18.5809 10.7394 18.5777 10.7297 18.5753C10.5719 18.5263 10.3536 18.4071 10.1883 18.247C10.0745 18.1372 9.98492 18.0075 9.9568 17.8678C9.95157 17.8433 9.94634 17.819 9.94093 17.7946C9.89406 17.588 9.83565 17.3301 10.0208 16.9078C10.0464 16.8512 10.0691 16.7983 10.09 16.7501C10.0967 16.7341 10.1039 16.718 10.1104 16.7025C10.1301 16.6569 10.1475 16.6151 10.1634 16.5771C10.1895 16.5129 10.211 16.4582 10.2287 16.4117C10.2359 16.3937 10.2426 16.3763 10.2483 16.3603C10.3013 16.2143 10.3078 16.1596 10.315 16.103C10.3217 16.0587 10.3282 16.0044 10.3466 15.9272C10.4008 15.6994 10.429 15.5064 10.4538 15.3345C10.4984 15.0254 10.537 14.7585 10.7062 14.5133C10.7351 14.4716 10.767 14.4335 10.8031 14.4001C10.8155 14.3886 10.8274 14.3776 10.8402 14.3666C10.8534 14.3556 10.8665 14.3461 10.8793 14.3363C10.9204 14.3079 10.9644 14.2829 11.012 14.2616C11.0284 14.2545 11.0448 14.2474 11.061 14.2417C11.0946 14.2295 11.1297 14.219 11.1665 14.21C11.3221 14.1729 11.5058 14.167 11.7169 14.1933C11.9479 14.2114 12.1617 14.2543 12.3512 14.3065C12.5095 14.3494 12.6508 14.3998 12.7703 14.4467C12.7828 14.4513 12.7947 14.4557 12.8064 14.4608C12.8293 14.4699 12.8515 14.4789 12.8731 14.4887C12.9059 14.5022 12.9358 14.5151 12.964 14.5272C13.0013 14.5439 13.0354 14.5588 13.0655 14.5721L13.0936 14.585C13.227 14.6448 13.3417 14.7105 13.4396 14.7793C13.4879 14.8143 13.5331 14.8496 13.5735 14.8854C13.5874 14.8971 13.6005 14.9094 13.6126 14.9221C13.6258 14.9346 13.6382 14.9468 13.6499 14.959C14.0172 15.3396 13.999 15.7798 13.9357 16.0507ZM14.8214 11.4483L14.7843 11.6684C14.6987 12.1645 14.5018 12.8447 13.776 13.0198C13.0777 13.1879 12.9122 13.2237 12.4152 13.2457C12.4042 13.2469 12.3923 13.2469 12.3806 13.2469C12.0176 13.2469 11.3192 13.0218 11.1955 12.4619C11.1164 12.1015 11.2779 11.8404 11.544 11.4073C11.5884 11.3358 11.6363 11.2591 11.6872 11.1736C12.0389 10.5904 12.1776 10.1684 12.289 9.82984C12.3973 9.49913 12.4876 9.22573 12.7199 8.99917C12.7734 8.94647 12.8342 8.8968 12.9048 8.84925C12.9499 8.81891 12.997 8.79194 13.0467 8.76675C13.1127 8.73446 13.1819 8.70642 13.2546 8.68371C13.4161 8.63297 13.5906 8.60725 13.7653 8.60725C14.1039 8.60725 14.4421 8.70305 14.6833 8.8936C14.7919 8.97912 14.9462 9.15015 15.0358 9.65473C15.082 9.91465 15.0033 10.3923 14.8214 11.4483ZM19.9997 12.8602C19.7498 13.2822 19.6132 13.5147 19.3974 13.6889C18.9692 14.035 18.4697 14.1227 18.0583 14.1227C17.7628 14.1227 17.5118 14.0778 17.364 14.0512C16.9389 13.9747 16.1478 13.8331 15.8842 13.2186C15.8327 13.097 15.8321 13.0198 15.8321 12.9219C15.8321 12.8252 15.8321 12.6627 15.7863 12.2757L15.7838 12.25C15.7627 12.0749 15.7393 11.8767 15.7903 11.6225L15.7962 11.5922C15.9453 10.8459 15.9857 10.7318 16.0193 10.6674C16.0964 10.5207 16.2794 10.4629 16.4285 10.5383C16.5729 10.6123 16.6331 10.7845 16.5652 10.9293C16.55 10.9717 16.5076 11.1307 16.3924 11.708L16.3865 11.7383C16.3537 11.9012 16.3681 12.0247 16.3872 12.1812L16.3897 12.2076C16.4393 12.6277 16.4393 12.8181 16.4393 12.9212C16.4393 12.9395 16.4393 12.9593 16.44 12.9712C16.4402 12.9758 16.4426 12.9819 16.444 12.9863C16.4934 13.1016 16.6048 13.1891 16.7406 13.2563C16.825 13.298 16.9131 13.2187 16.8944 13.1277C16.7593 12.47 16.7667 11.7028 17.022 11.2288C17.1057 11.0714 17.2603 10.8138 17.4073 10.5734C17.4078 10.5727 17.4082 10.5722 17.4085 10.5715C17.4089 10.5707 17.4094 10.5702 17.4098 10.5695C17.4248 10.5452 17.4395 10.5212 17.4543 10.4971C17.4668 10.4764 17.4792 10.4567 17.4907 10.4373C17.5555 10.3316 17.6162 10.2345 17.6649 10.1574C17.6714 10.1464 17.6779 10.1354 17.6846 10.1251C17.6891 10.1173 17.6937 10.1102 17.6983 10.1038C17.7087 10.0869 17.7179 10.0715 17.7266 10.0582C17.7303 10.0518 17.7343 10.0459 17.7376 10.0401C17.7395 10.0376 17.741 10.0349 17.7422 10.033C17.7467 10.0252 17.7514 10.0181 17.7554 10.0124C17.7632 10.0002 17.7691 9.99112 17.7724 9.98526C17.7727 9.98473 17.7729 9.98438 17.7731 9.98384C17.7738 9.9826 17.7752 9.98065 17.776 9.97941C17.7765 9.97852 17.7767 9.97834 17.7772 9.97746C17.8279 9.90489 17.878 9.83588 17.9267 9.77094C17.9928 9.68276 17.9162 9.56726 17.8131 9.60878C17.565 9.70831 17.3956 9.83552 17.3611 9.86231C17.2297 9.96539 17.0386 9.9441 16.9347 9.81476C16.8307 9.6856 16.8524 9.497 16.9838 9.39392C17.1401 9.2731 17.9685 8.67839 18.9605 8.95765C19.6754 9.15778 20.05 9.69518 20.1912 9.89726C20.3049 10.0614 20.6536 10.5596 20.6424 11.2551C20.6341 11.7855 20.4093 12.1672 19.9997 12.8602Z" fill="#F0F0F0"/>
<path d="M13.5563 9.22266C13.5055 9.34366 13.4447 9.49358 13.3794 9.65645C13.2269 10.0336 13.054 10.4609 12.9709 10.6158C12.8276 10.8835 12.716 11.0524 12.6269 11.1884C12.5249 11.3448 12.4436 11.4684 12.3823 11.6409C12.2747 11.9425 12.2554 12.2796 12.3253 12.6461C12.1353 12.6256 11.8243 12.4968 11.7892 12.3344C11.7628 12.2136 11.8391 12.0814 12.0639 11.7175C12.109 11.645 12.1573 11.566 12.2101 11.4782C12.5965 10.8379 12.7528 10.3615 12.8678 10.0132C12.9918 9.63427 13.0504 9.4753 13.2478 9.34259C13.3362 9.28209 13.4436 9.24359 13.5563 9.22266Z" fill="#F0F0F0"/>
<path d="M13.1792 22.6504C12.9686 23.0738 12.7065 23.4644 12.5431 23.658C12.4079 23.2982 12.1728 22.4737 12.2348 21.8104C12.2366 21.7912 12.2388 21.7722 12.2417 21.7538C12.2666 21.5488 12.3219 21.361 12.4203 21.2103C12.4852 21.1113 12.665 21.0508 12.8691 21.0508C13.0198 21.0508 13.1837 21.0833 13.3248 21.1578H13.3259C13.4015 21.1976 13.5044 21.2781 13.5152 21.5121C13.5307 21.8283 13.3777 22.2532 13.1792 22.6504Z" fill="#F0F0F0"/>
<path d="M24.7158 17.9067C24.732 17.9197 24.7423 17.9392 24.7329 17.9577C24.67 18.082 24.5946 18.1693 24.5056 18.2721C24.3981 18.3981 24.2751 18.5408 24.1608 18.7634C23.998 19.079 23.9459 19.3672 23.9185 20.1044C23.8863 20.9703 23.9203 21.4566 23.9459 21.8113C23.9703 22.1539 23.9852 22.3604 23.9232 22.6945C23.7981 23.3685 23.5051 23.8147 23.1341 24.3794C22.6699 25.0858 22.1898 25.816 21.3947 26.0488C21.3208 26.0711 21.3183 26.071 21.111 26.0717C20.9305 26.0717 20.6303 26.0726 20.0621 26.0931C19.0234 26.1302 18.5024 26.1487 18.0565 26.2329C17.5889 26.322 17.345 26.4198 17.1084 26.5138C16.895 26.5988 16.6932 26.6795 16.3065 26.7578C16.0759 26.8035 15.7314 26.8537 14.5574 26.8555C13.3372 26.8576 12.6006 26.8582 11.6279 26.7491C10.2935 26.5991 9.62352 26.5241 9.17857 26.2903C8.12913 25.7394 7.68599 24.7487 6.95295 23.1074C6.95169 23.1045 6.95041 23.1015 6.94915 23.0985C6.94013 23.0781 6.96539 23.0586 6.98486 23.0699C7.01966 23.0912 7.05589 23.1088 7.09411 23.1214C7.12621 23.1325 7.15954 23.1411 7.19325 23.1466C7.26032 23.1577 7.33029 23.1584 7.40132 23.1466C7.41376 23.1444 7.42512 23.1414 7.43612 23.137C7.43828 23.1361 7.44026 23.1352 7.44243 23.1343C7.45487 23.1283 7.47017 23.1333 7.4754 23.1459C7.52209 23.2724 7.59621 23.385 7.72061 23.4499C7.84518 23.5138 7.98689 23.5186 8.12553 23.5175C8.26831 23.5154 8.41218 23.5076 8.55443 23.4908C8.62979 23.4829 8.70693 23.5191 8.73578 23.5882C8.86612 23.899 9.02749 24.124 9.26998 24.1571C9.28314 24.1589 9.30027 24.1612 9.3219 24.1612C9.37653 24.1612 9.4609 24.1456 9.57989 24.0651C9.67201 24.003 9.81462 24.0393 9.88079 24.1279C9.94136 24.2086 10.0135 24.2668 10.0755 24.3158C10.3252 24.568 10.932 24.689 11.4417 24.689C11.7197 24.689 11.969 24.653 12.1158 24.5828C12.3256 24.4825 12.3256 24.3285 12.3154 24.2663C12.2975 24.1547 12.2813 24.0439 12.2676 23.9343C12.2659 23.9212 12.2862 23.916 12.2916 23.9283C12.322 23.9937 12.3593 24.0754 12.4587 24.0911C12.4695 24.0922 12.4816 24.0947 12.4953 24.0947C12.6373 24.0947 12.8584 24.1401 12.8964 24.2748C12.9159 24.3434 12.9433 24.4077 12.9806 24.4657C13.0659 24.5986 13.2395 24.7568 13.5837 24.7625H13.6103C14.0055 24.7625 14.3106 24.6353 14.5163 24.3839C14.5296 24.3677 14.5424 24.3511 14.5547 24.3342C14.6286 24.2317 14.8482 24.2272 14.9421 24.3124C15.0479 24.4087 15.1812 24.4584 15.3295 24.4584C15.3533 24.4584 15.3775 24.4573 15.4024 24.4545C15.5792 24.436 15.7323 24.344 15.8466 24.1866C15.9214 24.0839 15.9761 23.9575 16.0159 23.8209C16.0276 23.7807 16.0838 23.7686 16.1152 23.7968C16.1908 23.8656 16.3119 23.9384 16.4866 23.9384C16.5292 23.9384 16.5753 23.9339 16.6244 23.9238C16.9676 23.8559 17.1385 23.5763 17.2195 23.2606C17.2222 23.25 17.2377 23.2472 17.2449 23.2555C17.3318 23.3596 17.4923 23.4799 17.7715 23.4799C17.7858 23.4799 17.8005 23.4799 17.8151 23.4792C17.963 23.4725 18.0875 23.4086 18.1775 23.2944C18.2869 23.154 18.33 22.9461 18.3399 22.7367C18.3428 22.6757 18.3828 22.6219 18.4402 22.5983C18.7348 22.4772 19.0916 22.2162 19.1961 22.0384C19.1998 22.0322 19.2034 22.0256 19.207 22.0189C19.2309 21.9731 19.272 21.9371 19.3234 21.9275C19.5517 21.8849 19.6512 21.8424 19.7417 21.8037C19.8154 21.7717 19.8747 21.7465 20.0406 21.7212C21.3603 21.523 21.6179 21.4794 21.9035 21.292C22.3306 21.0117 22.3522 20.626 22.3733 20.2527C22.3913 19.937 22.4119 19.5787 22.6611 19.1584C22.7516 19.0049 22.8559 18.8134 22.967 18.6108C23.1613 18.2562 23.4329 17.7597 23.6272 17.4994C23.6638 17.4502 23.73 17.435 23.7869 17.4588C24.2431 17.6495 24.6316 17.8404 24.7158 17.9067Z" fill="#F0F0F0"/>
<path d="M11.9005 21.7711C11.8483 22.2202 11.8164 22.82 11.8903 23.6014C11.9112 23.8219 11.9404 24.0508 11.9766 24.2827C11.9141 24.3162 11.7273 24.3632 11.3952 24.3581C10.918 24.3487 10.4534 24.2305 10.3139 24.082L10.2922 24.0629C10.1761 23.9711 10.1 23.9106 10.0892 23.7467C10.0856 23.6914 10.1098 23.6365 10.1613 23.559C10.1898 23.5154 10.2273 23.465 10.2738 23.4029C10.3541 23.2969 10.4536 23.1649 10.5554 22.9946C10.8542 22.498 10.9674 22.3447 11.1113 22.151C11.1226 22.1354 11.1347 22.1196 11.1471 22.1034C11.2319 21.9892 11.3314 21.8526 11.481 21.6281C11.5924 21.4615 11.6851 21.331 11.7615 21.2284C11.889 21.0579 11.9725 20.9653 12.026 20.9149C12.0181 20.9923 12.0004 21.1009 11.9833 21.2011C11.9581 21.3553 11.9261 21.5439 11.9005 21.7711Z" fill="#F0F0F0"/>
<path d="M11.682 14.7902C11.6791 14.7942 11.6757 14.7981 11.6728 14.8021C11.6108 14.8868 11.5398 14.9824 11.455 15.1687C11.2275 15.6663 11.2232 15.9481 11.2196 16.1747C11.2174 16.2933 11.2161 16.3879 11.1831 16.4983C11.1604 16.571 11.1235 16.6544 11.0807 16.7506C10.9466 17.0529 10.7714 17.4492 10.85 17.9826C10.7413 17.9311 10.575 17.8135 10.552 17.7508C10.5462 17.7217 10.5399 17.6932 10.5332 17.6646C10.4955 17.4982 10.4707 17.3898 10.5781 17.1462C10.8608 16.5047 10.8956 16.3526 10.9178 16.1778C10.9223 16.1397 10.927 16.1101 10.9383 16.0618C10.998 15.8088 11.0292 15.5922 11.0548 15.4181C11.0928 15.154 11.1184 14.9792 11.2089 14.8477C11.2419 14.7991 11.3353 14.7739 11.4689 14.7739C11.5217 14.7739 11.5814 14.7778 11.6465 14.7869L11.6616 14.7879C11.6683 14.7887 11.6753 14.7892 11.682 14.7902Z" fill="#F0F0F0"/>
<path d="M11.3093 21.1188C11.294 20.965 11.2666 20.8108 11.2098 20.6659C11.2058 20.6586 11.1889 20.6215 11.1853 20.6144C11.175 20.596 11.1633 20.5786 11.1523 20.5603C11.1516 20.5596 11.1512 20.5596 11.1512 20.5591C11.1505 20.558 11.1501 20.558 11.1501 20.5575C11.1438 20.5507 11.138 20.5442 11.1319 20.5378C11.1227 20.5287 11.1128 20.52 11.1029 20.512C11.1011 20.5099 11.0995 20.5081 11.0978 20.5074C11.0933 20.5037 11.0865 20.4984 11.0791 20.4941C11.067 20.4879 11.0557 20.4812 11.0439 20.4753C11.0403 20.473 11.0319 20.4696 11.0239 20.4668C11.0239 20.4668 11.0234 20.4668 11.0234 20.4663C11.0216 20.4656 11.0198 20.4652 11.0183 20.4645C11.0165 20.4634 11.0155 20.4627 11.0144 20.4624C11.0126 20.4617 11.0115 20.4613 11.0104 20.4613C11.0093 20.4613 11.0093 20.4606 11.0093 20.4606C11.0057 20.4588 11.0036 20.4585 11.0019 20.4578C10.9109 20.4249 10.8186 20.3889 10.7219 20.3749C10.7214 20.3749 10.7198 20.3744 10.7185 20.3744H10.7164C10.7055 20.3744 10.6834 20.3722 10.6823 20.3722C10.6688 20.3715 10.6556 20.3715 10.6424 20.3722C10.6361 20.3722 10.63 20.3722 10.6242 20.3728H10.6192C10.617 20.3728 10.6143 20.3735 10.6114 20.3735C10.6103 20.3745 10.6085 20.3745 10.6078 20.3745C10.6073 20.3745 10.6067 20.3745 10.6067 20.3745C10.5851 20.3808 10.5624 20.3864 10.5408 20.393C10.5316 20.3976 10.5215 20.402 10.5123 20.4077C10.5045 20.4122 10.4964 20.4178 10.4885 20.4217C10.4879 20.4223 10.4869 20.4233 10.4856 20.4233L10.484 20.4251C10.4737 20.4352 10.4629 20.4446 10.4526 20.4547C10.4492 20.4583 10.4396 20.4698 10.4328 20.4783C10.431 20.4794 10.4299 20.4805 10.4299 20.4815C10.4293 20.4821 10.4293 20.4821 10.4288 20.4826C10.4283 20.4831 10.4283 20.4837 10.427 20.4842C10.4265 20.4849 10.4265 20.4854 10.4259 20.4854C10.4232 20.4902 10.4203 20.4943 10.4192 20.4966C10.3826 20.5525 10.3457 20.608 10.3077 20.6632C10.22 20.7954 10.1302 20.9268 10.0392 21.0574C9.95609 21.1756 9.87316 21.2938 9.79059 21.4117C9.74444 21.4779 9.69901 21.5432 9.65358 21.6094C9.64564 21.6206 9.63825 21.6317 9.63086 21.6429C9.68476 21.653 9.73885 21.6635 9.79348 21.6736C9.91571 21.6956 10.0374 21.7167 10.1614 21.7334C10.4167 21.7676 10.6763 21.7834 10.935 21.7744C10.9475 21.7737 10.9599 21.7744 10.9715 21.7765C11.0337 21.6892 11.1069 21.5851 11.2002 21.4456C11.252 21.3677 11.3014 21.2957 11.3479 21.229C11.327 21.1971 11.3138 21.1589 11.3093 21.1188Z" fill="#F0F0F0"/>
<path d="M10.3995 22.157C10.3775 22.3508 10.1572 22.8522 9.81354 23.3296C9.52581 23.7288 9.35111 23.8257 9.31632 23.829C9.1775 23.8101 9.0405 23.4719 8.93179 23.1366C8.88816 23.0007 8.84866 22.8651 8.81567 22.7516C8.74121 22.4964 8.7277 22.1542 8.74069 21.9393C9.03094 22.0976 9.54043 22.1402 10.2562 22.143H10.2583C10.3056 22.148 10.3522 22.1531 10.3995 22.157Z" fill="#F0F0F0"/>
<path d="M9.89069 20.5619C9.89069 20.5626 9.89069 20.5626 9.89069 20.5629C9.88727 20.5675 9.88438 20.5725 9.88114 20.5769C9.75818 20.7549 9.63433 20.932 9.51029 21.1092C9.44611 21.2006 9.38247 21.2918 9.31919 21.3837C9.28457 21.4335 9.23788 21.4883 9.19749 21.5476C9.09563 21.524 8.99395 21.5011 8.89317 21.4731C8.81078 21.4497 8.72947 21.4245 8.64961 21.3931C8.63356 21.3874 8.61824 21.3812 8.60345 21.3741C8.59029 21.3478 8.57154 21.3242 8.54883 21.3063C8.54937 21.3058 8.54937 21.3042 8.54991 21.3035C8.57894 21.2453 8.6085 21.1866 8.63753 21.1284C8.6927 21.0216 8.74804 20.9153 8.80934 20.8122C8.91877 20.6263 9.05056 20.4371 9.23553 20.3167C9.24473 20.3099 9.25483 20.3037 9.26456 20.2977C9.33631 20.2533 9.40807 20.2221 9.49605 20.2115C9.50632 20.2104 9.56834 20.2107 9.59737 20.2132C9.60242 20.2132 9.60656 20.2138 9.60945 20.2138H9.60999C9.61215 20.2145 9.6163 20.2155 9.62243 20.2177C9.64406 20.2244 9.66588 20.2288 9.68751 20.2361C9.6949 20.2397 9.70157 20.2429 9.70914 20.2468C9.72789 20.2579 9.74718 20.2681 9.76485 20.2821C9.73637 20.2608 9.80416 20.3296 9.80416 20.3247C9.85878 20.399 9.87537 20.4613 9.89069 20.5619Z" fill="#F0F0F0"/>
<path d="M8.91717 20.0573C8.68965 20.2414 8.52414 20.4866 8.38604 20.7418C8.30852 20.8833 8.23857 21.0278 8.16574 21.1717C8.15834 21.1864 8.15095 21.2004 8.14248 21.2148C8.07361 21.2 8.00474 21.1805 7.93749 21.1594C7.86592 21.1371 7.79471 21.1113 7.72656 21.0801C7.69537 21.0654 7.664 21.0503 7.63281 21.0342C7.70096 20.9071 7.78227 20.7851 7.85979 20.6665C7.96904 20.4991 8.08731 20.3346 8.21586 20.1801C8.26417 20.1213 8.31537 20.0569 8.38316 20.0183C8.45239 19.978 8.53622 19.9876 8.61573 19.992C8.69992 19.9971 8.79042 19.9993 8.86993 20.0307C8.88634 20.0376 8.90418 20.0484 8.91717 20.0573Z" fill="#F0F0F0"/>
<path d="M8.55538 23.062C8.54402 23.0715 8.53447 23.0816 8.52599 23.0935C8.51806 23.0956 8.50995 23.0974 8.5049 23.0986C8.45027 23.1041 8.39457 23.108 8.3394 23.1115C8.23357 23.1181 8.12612 23.1227 8.01921 23.1188C7.95954 23.1167 7.90545 23.1076 7.88093 23.0702C7.84163 23.0115 7.82973 22.9089 7.81567 22.831C7.74572 22.4487 7.73652 22.0504 7.7861 21.6635C7.9891 21.7351 8.19805 21.7907 8.41223 21.8253C8.36608 22.1741 8.44468 22.6861 8.49066 22.8429C8.51211 22.9159 8.53375 22.9897 8.55538 23.062Z" fill="#F0F0F0"/>
<path d="M7.90264 19.9299C7.7229 20.1471 7.5592 20.3782 7.41226 20.6178C7.35295 20.7152 7.28588 20.8159 7.23649 20.9201C7.16527 20.9006 7.10109 20.8725 7.03294 20.831C6.98066 20.7991 6.92982 20.7638 6.88042 20.7269C6.86798 20.7168 6.83391 20.6905 6.81263 20.6736C6.80777 20.6699 6.80308 20.666 6.79785 20.6632C6.81426 20.6174 6.84436 20.5663 6.86095 20.5321C6.89863 20.451 6.94064 20.3713 6.98463 20.2938C7.0681 20.1483 7.16149 20.006 7.26731 19.8751C7.30662 19.8268 7.34394 19.7647 7.40505 19.7468C7.46076 19.7312 7.53414 19.7385 7.57903 19.7461C7.71208 19.7715 7.81628 19.8309 7.90264 19.9299Z" fill="#F0F0F0"/>
<path d="M6.51795 20.8722C6.52047 20.863 6.53273 20.8617 6.53832 20.8695C6.58555 20.9357 6.65136 20.9932 6.72203 21.0473C6.75358 21.0709 6.78477 21.0943 6.81668 21.1165C6.82065 21.1193 6.82245 21.1241 6.82137 21.1289C6.74691 21.4325 6.69607 21.7548 6.69697 22.0724C6.69697 22.0864 6.67551 22.0893 6.67227 22.0756C6.58123 21.7059 6.45755 21.0895 6.51795 20.8722Z" fill="#F0F0F0"/>
<path d="M7.39775 21.5327C7.36133 21.7969 7.34384 22.0618 7.35556 22.3281C7.36133 22.4741 7.3772 22.6192 7.39721 22.7635C7.39721 22.7645 7.39721 22.7658 7.39775 22.7663V22.767C7.36584 22.7597 7.33249 22.7587 7.29841 22.7635C7.30508 22.7613 7.28759 22.7624 7.2802 22.7624H7.27804C7.27299 22.7619 7.2656 22.7613 7.26308 22.7608C7.22558 22.7517 7.22233 22.7478 7.19258 22.7294C7.15382 22.7047 7.1129 22.6598 7.08567 22.6141C7.01338 22.4909 6.99751 22.3414 6.99175 22.2019C6.98111 21.9283 7.00491 21.6551 7.05683 21.387C7.10118 21.4048 7.13976 21.4211 7.20412 21.4484C7.26776 21.4757 7.33375 21.5027 7.39811 21.532V21.5327H7.39775Z" fill="#F0F0F0"/>
<g opacity="0.8" filter="url(#filter0_i_226_148)">
<path opacity="0.8" d="M14.4961 35.357C13.2711 35.357 12.1091 35.2809 11.1341 35.2062L10.8653 35.1856L10.5969 35.1489C10.4795 35.1326 10.32 35.1157 10.166 35.0992C9.22798 34.9988 7.48354 34.8118 5.55792 33.9219L5.25882 33.7831L4.97992 33.6295C1.27902 31.5879 -0.106108 28.5156 -0.851949 26.8638C-0.899364 26.7589 -0.957055 26.6312 -1.01114 26.5136C-1.38776 25.7553 -1.62573 25.0717 -1.82765 24.4459L-1.87254 24.3061L-1.90986 24.1704C-2.44711 22.2915 -2.58287 20.669 -2.33678 19.0646C-2.09015 17.4536 -1.48367 15.988 -0.430261 14.4538L0.116003 13.5759C0.226879 13.3987 0.305125 13.2035 0.347311 12.9995C0.76377 10.9682 1.70882 9.52935 2.17324 8.84221C2.30106 8.01029 2.51181 7.19294 2.80244 6.40182L2.8457 6.28187L2.89204 6.16495C2.89961 6.14437 2.90934 6.11529 2.92719 6.06224C3.13578 5.44394 3.6249 3.99689 4.87716 2.47747L5.34752 1.91683L5.82672 1.49085C7.05771 0.389959 8.52433 -0.42475 10.1181 -0.893137C11.0079 -1.1543 11.9252 -1.31397 12.8521 -1.36897L12.9417 -1.37555L13.0767 -1.38176C13.237 -1.38921 13.3967 -1.39276 13.5525 -1.39276C14.1308 -1.39382 14.7083 -1.34592 15.2782 -1.24975C15.6344 -1.19067 16.0002 -1.23183 16.3336 -1.36845C17.3217 -1.77421 18.3605 -2.04866 19.4222 -2.18456C19.5109 -2.19698 19.5882 -2.20656 19.6491 -2.21437C19.8166 -2.23495 20.0827 -2.26584 20.4044 -2.296C20.965 -2.34869 21.8248 -2.4115 22.7569 -2.4115C24.5771 -2.4115 26.1439 -2.17943 27.5465 -1.70218L27.6659 -1.66137L27.7825 -1.61824C30.8779 -0.467152 32.4535 1.14098 33.5868 2.55963L33.6405 2.62721L33.7965 2.76366C34.8202 3.55192 35.6908 4.51548 36.3663 5.60839L36.5776 5.95047L36.7559 6.30921C38.2699 9.35053 37.7887 12.1587 37.6074 13.2138L37.5976 13.2702C37.4673 14.0486 37.2598 14.8126 36.9782 15.5512C36.8745 16.2633 36.7041 16.9645 36.469 17.6456C36.0672 18.8565 35.4742 19.9975 34.712 21.027C34.2732 21.6379 33.7776 22.2074 33.2317 22.7281C33.0386 22.9118 32.9135 23.1536 32.8761 23.4151C32.8525 23.5762 32.8257 23.7355 32.795 23.8933C32.3511 26.2361 31.31 27.8666 30.8851 28.5159L29.6002 30.332C28.0528 32.2291 26.2168 33.4805 23.9951 34.1529L23.4568 34.319L22.8753 34.4185C22.2103 34.534 21.5362 34.5915 20.8608 34.59C20.7676 34.59 20.6739 34.59 20.5699 34.5874H20.5399L20.4253 34.5945L20.3023 34.5989H20.2989C20.0414 34.6074 19.7862 34.6488 19.5395 34.722C18.1045 35.1541 16.4812 35.357 14.4961 35.357Z" stroke="url(#paint2_linear_226_148)" stroke-width="1.0554" stroke-miterlimit="10"/>
<path opacity="0.8" d="M14.4965 34.1083C13.3227 34.1083 12.1968 34.0347 11.2505 33.9612L11.0262 33.9442L10.8019 33.9137C10.662 33.8945 10.4913 33.877 10.3263 33.8585C9.41534 33.7611 7.89229 33.5981 6.19202 32.8133L5.94233 32.6978L5.71012 32.5694C2.44425 30.7668 1.23597 28.0903 0.51375 26.4906C0.462189 26.3766 0.398911 26.2364 0.339957 26.1092C0.00354479 25.43 -0.217124 24.8027 -0.403359 24.2255L-0.440678 24.1091L-0.473131 23.9959C-0.950888 22.3248 -1.07438 20.8989 -0.861286 19.5076C-0.648189 18.116 -0.111297 16.8303 0.825104 15.475L1.52497 14.3503C1.64883 14.1511 1.73374 13.9307 1.77539 13.7009C2.12388 11.7903 3.041 10.4357 3.45782 9.81918L3.51046 9.74112L3.52993 9.71025C3.53858 9.69144 3.5467 9.67352 3.55463 9.654C3.58005 9.57275 3.60511 9.49397 3.62945 9.41892C3.73906 8.63508 3.93251 7.86508 4.2069 7.12134L4.2444 7.02128L4.28442 6.92086C4.29704 6.88892 4.30894 6.85433 4.3441 6.75054C4.54259 6.16186 4.95581 4.93979 6.03662 3.62849L6.42874 3.16134L6.82681 2.80704C7.89428 1.85252 9.16583 1.14622 10.5477 0.740104C11.3323 0.510879 12.1409 0.371072 12.9578 0.323347L13.0326 0.317488L13.1447 0.312344C13.2812 0.305957 13.4173 0.303118 13.55 0.303118C14.1361 0.302054 14.7206 0.135991 15.2948 0.252024C15.7378 0.342152 16.1984 0.293896 16.6122 0.113993C17.3852 -0.221507 18.426 -0.35546 19.6176 -0.501477C19.7025 -0.513718 19.7764 -0.522767 19.8339 -0.529864C19.9906 -0.54938 20.2412 -0.578477 20.5443 -0.606686C21.0714 -0.656364 21.8827 -0.717041 22.7549 -0.717041C24.4061 -0.717041 25.8129 -0.511414 27.056 -0.088446L27.1553 -0.0545572L27.2525 -0.0176522C29.9963 1.00251 31.3522 2.3681 32.4086 3.69218C32.4672 3.76581 32.5275 3.84121 32.5498 3.86729L32.5749 3.88929L32.7753 4.06494L32.8022 4.09208C33.715 4.78012 34.4895 5.62942 35.0864 6.59636L35.2622 6.88147L35.4117 7.18025C36.714 9.79629 36.3059 12.1764 36.1317 13.1928L36.1223 13.2469C35.9987 13.9853 35.7966 14.709 35.5189 15.4058C35.4315 16.0839 35.2746 16.7515 35.0509 17.3987C34.6956 18.47 34.1711 19.4799 33.4969 20.3908C33.0404 21.0295 32.5125 21.6155 31.9233 22.1384C31.65 22.38 31.4775 22.7129 31.4393 23.0725C31.4108 23.3374 31.3724 23.5948 31.3237 23.8476C30.9323 25.9156 30.0175 27.346 29.5987 27.9865L28.5579 29.4754C27.1748 31.2244 25.5358 32.3682 23.5503 32.9705L23.1018 33.1087L22.6157 33.1916C22.0358 33.2924 21.4477 33.3424 20.8587 33.3413C20.773 33.3413 20.6856 33.3413 20.5915 33.339H20.5648H20.5091C20.5091 33.339 20.4905 33.339 20.4523 33.3417L20.3495 33.3479L20.2461 33.3516L20.0393 33.3593C19.766 33.3688 19.4954 33.4151 19.2347 33.4969C17.9127 33.9123 16.3852 34.1083 14.4965 34.1083Z" stroke="url(#paint3_linear_226_148)" stroke-width="1.0554" stroke-miterlimit="10"/>
<path opacity="0.8" d="M14.4961 32.6376C13.3745 32.6376 12.2836 32.5659 11.3654 32.4956L11.1864 32.482L11.0077 32.4577C10.8458 32.4357 10.6638 32.4161 10.4876 32.397C9.61702 32.3038 8.3022 32.163 6.82782 31.4824L6.6277 31.3901L6.44075 31.2874C3.60865 29.7249 2.56858 27.42 1.87989 25.8947C1.8213 25.7642 1.75477 25.6169 1.69312 25.4805C1.39402 24.8818 1.19427 24.3109 1.02426 23.7822L0.99433 23.6894L0.968189 23.5984C0.549747 22.1358 0.439232 20.9061 0.619337 19.7291C0.802146 18.5356 1.27846 17.4231 2.11733 16.2272L2.2172 16.0853L2.3252 15.9489C2.39316 15.8635 2.45861 15.7793 2.52297 15.6968L2.94393 14.9371C3.08203 14.6888 3.17524 14.4188 3.21941 14.1392C3.48713 12.4347 4.32149 11.2033 4.70658 10.6353L4.70839 10.6323C4.73056 10.5999 4.75887 10.5587 4.77347 10.536L4.85568 10.4068C4.88795 10.3376 4.9305 10.2457 4.96782 10.1492C5.00532 10.0341 5.04985 9.89178 5.09834 9.74452C5.18957 9.01852 5.36445 8.30494 5.61955 7.61779L5.64857 7.5376L5.68049 7.45652C5.70735 7.38928 5.72718 7.33073 5.76612 7.21558C5.95037 6.67073 6.29201 5.65944 7.20083 4.55607L7.51525 4.18189L7.83273 3.89979C8.73614 3.09183 9.81245 2.49375 10.9823 2.15009C11.6613 1.95173 12.3613 1.83144 13.0684 1.7917L13.1281 1.78726L13.2189 1.78318C13.3311 1.77804 13.4432 1.77555 13.5553 1.77555C14.1635 1.77467 14.769 1.85042 15.3573 2.00105C15.8668 2.12791 16.4055 2.07185 16.8766 1.84315C17.6307 1.48299 18.6394 1.10083 19.8209 0.958005C19.902 0.94665 19.9706 0.937777 20.0263 0.930858C20.1732 0.912761 20.4072 0.88562 20.6913 0.857232C21.1859 0.810571 21.9463 0.755035 22.7597 0.755035C24.2421 0.755035 25.4887 0.934053 26.573 1.30273L26.6526 1.33005L26.7304 1.35862C29.2504 2.2961 30.3786 3.52384 31.2382 4.6006C31.4277 4.83781 31.4563 4.87471 31.5865 4.98844L31.747 5.12895L31.8093 5.19176C32.224 5.50792 33.0719 6.1587 33.8139 7.36249L33.9547 7.59047L34.0737 7.82928C35.1646 10.0201 34.8252 11.9986 34.6622 12.9498L34.6532 13.0023C34.5365 13.6996 34.3391 14.3816 34.0647 15.0346L34.0573 15.0946C33.9849 15.7193 33.8446 16.3346 33.6389 16.93C33.3304 17.8623 32.8743 18.741 32.2875 19.5334C31.7965 20.2258 31.2065 20.8447 30.5356 21.3711C30.3761 21.4956 30.2454 21.6523 30.1523 21.8306C30.0593 22.0091 30.0063 22.2049 29.9966 22.4053C29.9784 22.7982 29.9324 23.1898 29.859 23.5766C29.5203 25.3698 28.7248 26.6129 28.3188 27.2335L27.5121 28.4068C26.2959 30.0045 24.8543 31.0387 23.1122 31.5643L22.7538 31.6747L22.366 31.7411C21.8704 31.8273 21.3678 31.87 20.8644 31.869C20.7862 31.869 20.7067 31.869 20.6207 31.8668H20.6008H20.5148C20.5002 31.8668 20.4557 31.8668 20.3652 31.8723L20.283 31.8775L20.2035 31.8805L19.7877 31.8956C19.4966 31.9053 19.2083 31.9564 18.9319 32.0473C17.7212 32.4488 16.2926 32.6376 14.4961 32.6376Z" stroke="url(#paint4_linear_226_148)" stroke-width="0.989438" stroke-miterlimit="10"/>
<path opacity="0.8" d="M14.4961 31.1657C13.4243 31.1657 12.3706 31.0961 11.4816 31.0282L11.3473 31.0179L11.2131 30.9998C11.0296 30.9748 10.8363 30.9538 10.649 30.934C9.8307 30.846 8.71167 30.7264 7.46266 30.15L7.3132 30.0804L7.17366 30.0036C4.77514 28.6791 3.89283 26.7252 3.24831 25.2974C3.18142 25.1503 3.11183 24.9954 3.04314 24.8471C2.76911 24.3049 2.59459 23.7841 2.44947 23.3386L2.42711 23.2691L2.40764 23.2011C1.70633 20.7483 1.96991 19.0277 3.34782 17.0645L3.42264 16.9577L3.50377 16.8555C3.59536 16.7404 3.68099 16.6297 3.76536 16.5244C3.89247 16.3603 4.02119 16.1932 4.16127 16.0215C4.24835 15.9145 4.31848 15.7951 4.3695 15.6675L4.52761 15.2703C4.59468 15.1012 4.63668 14.9238 4.65255 14.743C4.78975 13.1694 5.56732 12.0224 5.95241 11.454L5.95457 11.451C5.98269 11.4091 6.02524 11.3466 6.03948 11.3241L6.12963 11.1825L6.15721 11.1456C6.20517 11.0504 6.29891 10.8492 6.38148 10.6384C6.42602 10.4941 6.49633 10.2727 6.56502 10.0714C6.56502 10.0637 6.56501 10.0552 6.56808 10.0463C6.64182 9.38704 6.79614 8.73893 7.02799 8.11601L7.04998 8.05569L7.07396 7.99501C7.11579 7.89016 7.14535 7.80251 7.1861 7.68151C7.35052 7.19521 7.62563 6.38103 8.363 5.4863L8.59881 5.20527L8.83553 4.99485C10.5767 3.43995 12.5252 3.30582 13.1764 3.26271L13.2213 3.25934L13.2902 3.25614C13.3787 3.25206 13.4674 3.25029 13.5541 3.25029C14.3272 3.25295 15.0922 3.40677 15.8043 3.70306C15.9305 3.75469 16.0666 3.77811 16.2031 3.77172C16.3395 3.76534 16.4728 3.72932 16.5934 3.66634H16.5972C17.2592 3.28843 18.472 2.60342 20.0182 2.42014C20.0929 2.40914 20.1618 2.4008 20.2122 2.39442C20.3484 2.37756 20.5654 2.35254 20.8324 2.32717C21.2945 2.28371 22.0041 2.2319 22.7584 2.2319C24.0718 2.2319 25.1589 2.38484 26.0823 2.69904L26.1422 2.71927L26.2004 2.74109C28.3601 3.54409 29.2914 4.55184 30.06 5.51504C30.2667 5.77248 30.3591 5.89206 30.5905 6.0929L30.7108 6.19846L30.8072 6.29604L30.8821 6.35424C31.248 6.63296 31.9288 7.15209 32.5329 8.13003L32.6388 8.30106L32.728 8.48025C33.6065 10.2461 33.3318 11.8477 33.1841 12.7085L33.1757 12.7596C33.0714 13.3855 32.8904 13.9966 32.6364 14.5792L32.6151 14.6293C32.613 14.6401 32.6099 14.6559 32.6054 14.6789C32.5939 14.7382 32.5872 14.7854 32.5793 14.8454L32.5703 14.9129C32.5104 15.4408 32.3925 15.9606 32.2185 16.4632C31.9569 17.2563 31.5693 18.0036 31.0705 18.6773C30.577 19.3668 30.0237 19.9283 29.4028 20.3727C29.1302 20.5686 28.9076 20.8243 28.7525 21.1193C28.5975 21.4144 28.5142 21.741 28.5093 22.0731C28.5041 22.4874 28.4628 22.9004 28.3862 23.3078C28.0999 24.8268 27.4411 25.8555 27.0312 26.4823L26.4449 27.3473C25.3951 28.7906 24.1567 29.7123 22.6661 30.1613L22.5873 30.1856C22.4608 30.2248 22.3317 30.2555 22.2011 30.2777L22.1065 30.2938C21.6953 30.3655 21.2784 30.4012 20.8609 30.4001C20.7902 30.4001 20.7185 30.4001 20.6406 30.3983H20.628C20.5925 30.3983 20.5532 30.3983 20.5113 30.3983C20.4821 30.3983 20.4051 30.3983 20.266 30.4069L20.2043 30.4104L20.1441 30.4127C19.9442 30.42 19.6955 30.4285 19.4738 30.4381C19.17 30.4505 18.8698 30.5083 18.5837 30.6098C17.5109 30.987 16.1978 31.1657 14.4961 31.1657Z" stroke="url(#paint5_linear_226_148)" stroke-width="0.923475" stroke-miterlimit="10"/>
<path opacity="0.8" d="M14.4961 29.6942C13.4751 29.6942 12.4579 29.6269 11.5974 29.5611L11.5076 29.5544L11.4182 29.5419C11.2123 29.5139 11.007 29.4919 10.8092 29.471C10.0571 29.3904 9.12103 29.29 8.09737 28.8175L7.99731 28.7712L7.90446 28.7201C5.93971 27.6359 5.20541 26.0083 4.61479 24.7003C4.54214 24.5392 4.46516 24.373 4.39034 24.211C4.15903 23.7567 4.00237 23.2913 3.87382 22.893L3.85886 22.8468L3.8457 22.8016C3.26698 20.7781 3.45808 19.4938 4.57693 17.8996L4.62669 17.8287L4.68096 17.7607C4.77849 17.6378 4.86774 17.523 4.95301 17.4123C5.24507 17.0354 5.52578 16.6728 5.94566 16.2317C6.03761 16.1348 6.09277 16.0096 6.10143 15.8774L6.13334 15.4012L6.1209 15.2453L6.12649 15.0835C6.1703 13.7778 6.83681 12.7955 7.19342 12.2678C7.2347 12.2068 7.27761 12.144 7.30303 12.1039L7.36325 12.0097L7.41895 11.936C7.48548 11.8291 7.66036 11.4641 7.79268 11.1139C7.8383 10.9666 7.92664 10.6859 8.00434 10.4633C8.02724 10.3923 8.0294 10.3751 8.04815 10.2227C8.10891 9.67181 8.23781 9.13015 8.43198 8.60996L8.44658 8.56933L8.46263 8.52852C8.51797 8.38942 8.55655 8.27588 8.60108 8.14405C8.74189 7.72694 8.95426 7.09817 9.52036 6.41138L9.67811 6.22367L9.83424 6.08457C11.0542 4.9945 12.3831 4.78817 13.28 4.72891L13.3103 4.72625H13.3567C13.4217 4.72341 13.4865 4.72199 13.5499 4.72199C14.3159 4.72199 15.2322 5.08357 15.7133 5.30215C15.8284 5.35396 15.9528 5.38305 16.0793 5.38767C16.2059 5.3921 16.3321 5.37188 16.4505 5.32823C16.75 5.22142 17.0417 5.0951 17.3238 4.94997C17.9359 4.60046 18.9513 4.02331 20.2123 3.87871C20.2818 3.86842 20.3442 3.86062 20.3958 3.85405C20.5225 3.83862 20.7226 3.81733 20.9704 3.79178C21.4003 3.75133 22.0587 3.70325 22.7545 3.70325C23.8984 3.70325 24.8259 3.82975 25.5896 4.08949L25.6293 4.10315L25.6666 4.11752C27.4704 4.78817 28.1883 5.55888 28.8787 6.42379C29.103 6.7027 29.2615 6.90212 29.5909 7.19202L29.6709 7.26228L29.7456 7.33591C29.8128 7.40138 29.8851 7.46152 29.9621 7.51581C30.2716 7.7516 30.7905 8.14671 31.2508 8.89241L31.3211 9.00649L31.3808 9.12607C32.0478 10.4656 31.8334 11.715 31.7053 12.4614L31.6968 12.5121C31.6115 13.0275 31.4622 13.5305 31.2522 14.0099V14.0136C31.1942 14.1376 31.154 14.2689 31.133 14.4039C31.115 14.4981 31.1038 14.5739 31.093 14.6578L31.084 14.7261C31.036 15.1567 30.9403 15.5809 30.7988 15.991C30.5853 16.6455 30.266 17.2616 29.8534 17.8159C29.244 18.6713 28.5396 19.2731 27.691 19.6554C27.4848 19.748 27.3086 19.8948 27.1821 20.0798C27.0553 20.2647 26.9831 20.4804 26.9731 20.7031C26.9692 20.7945 26.9675 20.8695 26.9702 20.9114C27.0121 21.5549 27.0595 22.2841 26.9138 23.0353C26.6802 24.2777 26.1454 25.1128 25.7436 25.726C25.7436 25.726 23.8998 28.2514 22.2221 28.7554L22.0414 28.811L21.8474 28.8443C21.5209 28.9015 21.1899 28.9297 20.8582 28.9286C20.7955 28.9286 20.7311 28.9286 20.6621 28.9268H20.6559C20.6116 28.9268 20.5633 28.9268 20.5086 28.9268C20.4428 28.9268 20.3356 28.9268 20.1688 28.9382L20.1281 28.9408H20.0879C19.4459 28.9636 18.8392 28.985 18.6704 29.0173C18.5802 29.0312 18.4923 29.0565 18.4088 29.0931C17.4592 29.5026 16.214 29.6942 14.4961 29.6942Z" stroke="url(#paint6_linear_226_148)" stroke-width="0.857513" stroke-miterlimit="10"/>
<path opacity="0.8" d="M14.496 28.2232C13.5262 28.2232 12.5449 28.1581 11.7127 28.0944L11.6682 28.091L11.6237 28.0848C11.396 28.0539 11.18 28.0307 10.9707 28.0083C10.2625 27.9324 9.53021 27.8541 8.73208 27.4858L8.68196 27.4622L8.63563 27.4369C7.10284 26.5907 6.5335 25.327 5.98129 24.1033C5.90286 23.9298 5.82174 23.7503 5.7379 23.5718C5.55095 23.2082 5.41862 22.8183 5.29981 22.4489L5.29224 22.4262L5.28557 22.4029C4.82548 20.7923 4.94248 19.97 5.80894 18.7364L5.834 18.6997L5.86086 18.6654C5.96254 18.5379 6.05503 18.4186 6.14391 18.3035C6.56037 17.7658 6.9204 17.3012 7.72717 16.5684L7.72933 16.5661C7.78865 16.5106 7.83011 16.4393 7.84904 16.3609C7.86797 16.2826 7.86329 16.2005 7.83588 16.1247L7.69057 15.7167C7.66137 15.588 7.64081 15.4576 7.62928 15.3263V15.3219L7.62026 15.2115L7.62315 15.1306C7.65271 14.2444 8.1265 13.5458 8.43966 13.0832C8.4887 13.0096 8.53539 12.9424 8.57163 12.8849L8.60156 12.8378L8.63527 12.7933C8.80167 12.5726 9.07192 11.9616 9.21398 11.583C9.2513 11.4664 9.34704 11.1533 9.42672 10.9263C9.48333 10.7555 9.52011 10.5791 9.53616 10.4001C9.58321 9.95727 9.68651 9.52171 9.84354 9.10406L9.85093 9.08348L9.85923 9.06325C9.92828 8.8885 9.97695 8.74496 10.024 8.60587C10.1493 8.23541 10.291 7.81529 10.6853 7.33661L10.7646 7.2424L10.842 7.17374C11.7086 6.39895 12.6585 6.24282 13.3912 6.19509H13.4065H13.4305C13.4716 6.19509 13.5127 6.19243 13.5535 6.19243C14.2665 6.19243 14.8145 6.48021 15.1771 6.67075L15.2617 6.71493L15.2743 6.7215C15.3738 6.77454 15.4612 6.82085 15.5424 6.86024C15.7677 6.97148 16.0266 6.99756 16.2702 6.93387C16.7667 6.8024 17.5414 6.51338 18.0624 6.23146L18.0732 6.22525C18.6213 5.91246 19.4468 5.44159 20.4142 5.33709C20.4751 5.32751 20.5335 5.32059 20.5885 5.31349C20.7006 5.29966 20.8874 5.27677 21.1158 5.25654C21.5137 5.21982 22.1211 5.17458 22.7579 5.17458C23.7329 5.17458 24.5003 5.27464 25.1045 5.47991L25.1243 5.48683L25.1445 5.49429C26.5917 6.0324 27.1195 6.5957 27.7074 7.33377C27.9469 7.63361 28.1729 7.91677 28.6018 8.29254L28.6417 8.32927L28.6792 8.366C28.7951 8.48114 28.92 8.58706 29.0529 8.68287C29.3102 8.87891 29.6626 9.14753 29.9794 9.66027L30.0145 9.7174L30.0445 9.77735C30.4993 10.6916 30.3479 11.5752 30.2374 12.2201L30.2287 12.271C30.1626 12.6778 30.0439 13.0747 29.8761 13.4523C29.7782 13.6696 29.7086 13.8983 29.6691 14.1328C29.643 14.2689 29.6277 14.3754 29.6149 14.4738L29.6058 14.5437C29.57 14.8773 29.4966 15.2057 29.3872 15.5231C29.2213 16.0383 28.9705 16.523 28.6447 16.9579C28.0952 17.7343 27.4859 18.2129 26.6764 18.4664C26.2886 18.5872 25.9549 18.8359 25.7317 19.1705L25.6675 19.2678L25.5965 19.3476C25.3908 19.5779 25.4488 20.4703 25.4843 21.0031C25.5217 21.5877 25.5617 22.1922 25.4506 22.7613C25.2682 23.7343 24.8447 24.3911 24.4655 24.9686C24.4655 24.9686 23.0577 26.9674 21.7874 27.3471L21.6949 27.3758L21.5977 27.3923C21.3558 27.4351 21.1104 27.456 20.8647 27.455C20.8094 27.455 20.7526 27.455 20.6924 27.455C20.639 27.455 20.5802 27.455 20.5151 27.455C20.4288 27.455 20.2909 27.455 20.0808 27.4693H20.0606H20.0404C19.1884 27.4998 18.6745 27.5178 18.3903 27.5722C18.199 27.6056 18.0125 27.6604 17.834 27.736C17.0732 28.0679 16.0107 28.2232 14.496 28.2232Z" stroke="url(#paint7_linear_226_148)" stroke-width="0.857513" stroke-miterlimit="10"/>
</g>
</g>
</g>
<defs>
<filter id="filter0_i_226_148" x="-2.98291" y="-2.93919" width="41.5998" height="39.2197" filterUnits="userSpaceOnUse" color-interpolation-filters="sRGB">
<feFlood flood-opacity="0" result="BackgroundImageFix"/>
<feBlend mode="normal" in="SourceGraphic" in2="BackgroundImageFix" result="shape"/>
<feColorMatrix in="SourceAlpha" type="matrix" values="0 0 0 0 0 0 0 0 0 0 0 0 0 0 0 0 0 0 127 0" result="hardAlpha"/>
<feOffset dx="0.26385" dy="0.395775"/>
<feGaussianBlur stdDeviation="0.329812"/>
<feComposite in2="hardAlpha" operator="arithmetic" k2="-1" k3="1"/>
<feColorMatrix type="matrix" values="0 0 0 0 0 0 0 0 0 0 0 0 0 0 0 0 0 0 0.12 0"/>
<feBlend mode="normal" in2="shape" result="effect1_innerShadow_226_148"/>
</filter>
<radialGradient id="paint0_radial_226_148" cx="0" cy="0" r="1" gradientUnits="userSpaceOnUse" gradientTransform="translate(17.4572 18.6858) rotate(90) scale(18.4933 18.792)">
<stop offset="0.166667" stop-color="#073183"/>
<stop offset="1" stop-color="#0054F9"/>
</radialGradient>
<radialGradient id="paint1_radial_226_148" cx="0" cy="0" r="1" gradientUnits="userSpaceOnUse" gradientTransform="translate(17.4572 18.6858) rotate(90) scale(18.4933 18.792)">
<stop offset="0.166667" stop-color="#073183"/>
<stop offset="1" stop-color="#0054F9"/>
</radialGradient>
<linearGradient id="paint2_linear_226_148" x1="-2.45505" y1="-2.4115" x2="35.2352" y2="37.7856" gradientUnits="userSpaceOnUse">
<stop offset="0.205697" stop-color="#89D0FF"/>
<stop offset="0.398413" stop-color="#EBBF9A"/>
<stop offset="0.601546" stop-color="#EB8280"/>
<stop offset="0.841139" stop-color="#A281FF"/>
</linearGradient>
<linearGradient id="paint3_linear_226_148" x1="-0.961886" y1="-0.717038" x2="33.7821" y2="36.4894" gradientUnits="userSpaceOnUse">
<stop offset="0.205697" stop-color="#89D0FF"/>
<stop offset="0.398413" stop-color="#EBBF9A"/>
<stop offset="0.601546" stop-color="#EB80DA"/>
<stop offset="0.841139" stop-color="#A281FF"/>
</linearGradient>
<linearGradient id="paint4_linear_226_148" x1="0.536044" y1="0.754859" x2="32.3332" y2="34.97" gradientUnits="userSpaceOnUse">
<stop offset="0.205697" stop-color="#89D0FF"/>
<stop offset="0.398413" stop-color="#EBBF9A"/>
<stop offset="0.601546" stop-color="#EB8280"/>
<stop offset="0.841139" stop-color="#A281FF"/>
</linearGradient>
<linearGradient id="paint5_linear_226_148" x1="2.03211" y1="2.2319" x2="30.8759" y2="33.4464" gradientUnits="userSpaceOnUse">
<stop offset="0.205697" stop-color="#89D0FF"/>
<stop offset="0.398413" stop-color="#EBBF9A"/>
<stop offset="0.601546" stop-color="#EB80E7"/>
<stop offset="0.841139" stop-color="#A281FF"/>
</linearGradient>
<linearGradient id="paint6_linear_226_148" x1="3.52731" y1="3.70325" x2="29.4235" y2="31.915" gradientUnits="userSpaceOnUse">
<stop offset="0.205697" stop-color="#89D0FF"/>
<stop offset="0.398413" stop-color="#EBBF9A"/>
<stop offset="0.601546" stop-color="#EB80D3"/>
<stop offset="0.841139" stop-color="#A281FF"/>
</linearGradient>
<linearGradient id="paint7_linear_226_148" x1="5.02055" y1="5.17458" x2="27.9663" y2="30.3946" gradientUnits="userSpaceOnUse">
<stop offset="0.205697" stop-color="#89D0FF"/>
<stop offset="0.398413" stop-color="#EBBF9A"/>
<stop offset="0.601546" stop-color="#A280EB"/>
<stop offset="0.841139" stop-color="#A281FF"/>
</linearGradient>
<clipPath id="clip0_226_148">
<rect width="139" height="33" fill="white" transform="translate(0.730469 0.5)"/>
</clipPath>
</defs>
</svg>
