<svg width="96" height="22" viewBox="0 0 96 22" fill="none" xmlns="http://www.w3.org/2000/svg">
<path fill-rule="evenodd" clip-rule="evenodd" d="M20.9466 0.194832L20.118 0.381633L19.3851 0.419618L18.6522 0.457667L17.527 0.322744L16.4019 0.187885L15.8381 0.188968L15.2743 0.190116L14.8509 0.279852L14.4274 0.369588L14.1678 0.502025L13.9083 0.634462L13.8424 0.757531L13.7766 0.880599V1.10864V1.33667L13.6495 1.79536L13.5224 2.25405L13.4192 2.98952L13.3161 3.72507L13.3596 6.87985L13.4031 10.0346L13.3323 11.0544C13.2934 11.6152 13.1634 13.1066 13.0435 14.3685C12.9235 15.6304 12.7953 17.0214 12.7585 17.4595C12.7217 17.8977 12.6457 18.5707 12.5898 18.955L12.4879 19.6537L12.5134 20.2363L12.5389 20.8188L12.6964 21.1249L12.854 21.4312L13.091 21.5541L13.328 21.6771L13.9672 21.7481L14.6065 21.819L15.4184 21.7436C15.8649 21.7022 16.7576 21.5825 17.402 21.4777L18.5738 21.2872L19.608 21.275L20.6421 21.2629L20.7361 21.1935C20.7878 21.1554 20.859 21.0668 20.8943 20.9967L20.9584 20.8692L20.907 20.3594C20.8787 20.079 20.8376 19.1899 20.8158 18.3837L20.776 16.9178L20.9 16.6947L21.0239 16.4717L21.272 16.3864L21.5202 16.3012L21.9526 16.3302C22.4763 16.3655 22.4474 16.3382 22.3715 16.7267L22.3093 17.0453L22.3484 17.4277C22.3698 17.638 22.4402 18.0538 22.5047 18.3518C22.5693 18.6497 22.6528 19.2013 22.6905 19.5774L22.7589 20.2613L22.9203 20.7418C23.009 21.0062 23.0816 21.2662 23.0816 21.3197V21.4168L23.2381 21.5732L23.3945 21.7296L23.5408 21.7293L23.6871 21.7289L23.8783 21.6291C23.9834 21.5742 24.2436 21.4889 24.4565 21.4395L24.8434 21.3497L25.4125 21.3114L25.9815 21.2731L26.1592 21.2058L26.3368 21.1386L26.3981 21.0241L26.4595 20.9095V20.2504V19.5913L26.3952 19.0512C26.3108 18.3431 26.1607 17.7079 25.9676 17.2415C25.8817 17.034 25.752 16.6468 25.6795 16.3811L25.5476 15.8981L25.4924 13.1257C25.4621 11.6009 25.4121 8.61817 25.3814 6.49745L25.3255 2.64161L25.2613 2.32294C25.1416 1.72914 24.988 1.19863 24.8371 0.857273L24.6867 0.51713L24.5275 0.412863L24.3684 0.308595L24.0277 0.318984L23.6871 0.329309L23.2409 0.164622L22.7948 0L22.2849 0.00401541L21.7751 0.00809427L20.9466 0.194832ZM86.8465 0.063797C86.5661 0.0958547 86.1789 0.167299 85.9861 0.222556L85.6356 0.323127L84.4111 0.335172L83.1866 0.347218L83.0924 0.442817L82.9982 0.538417L82.8273 1.04828L82.6565 1.55814L82.626 2.25921L82.5955 2.96027L82.7618 4.1712L82.928 5.38213L82.9116 7.48532L82.895 9.5885L83.0115 9.99895C83.0755 10.2247 83.1805 10.5115 83.2449 10.6363L83.3619 10.8632L83.5746 11.0636L83.7873 11.264L84.106 11.4212C84.4813 11.6063 84.9417 11.7564 86.1136 12.0758L86.974 12.3102L88.1656 12.364C89.2365 12.4122 90.1615 12.4982 90.5589 12.5864L90.7023 12.6182V12.9897V13.3612L90.0491 13.4016C89.6898 13.4238 88.7655 13.5141 87.9951 13.6025L86.5945 13.763H85.433H84.2716L83.9447 13.8331L83.6179 13.9032L83.4034 14.0915L83.189 14.2798L83.0875 14.7384C83.0316 14.9906 82.9611 15.4838 82.9307 15.8343L82.8755 16.4717L82.9349 17.8101L82.9945 19.1485L83.0615 19.5946C83.0984 19.84 83.1538 20.2415 83.1846 20.4869L83.2406 20.933L83.3663 21.0353L83.492 21.1378L84.3726 21.18C86.4823 21.2814 89.0187 21.3447 91.6376 21.3613L94.453 21.3791L94.6291 21.2477C94.726 21.1754 94.8644 21.0372 94.9366 20.9404L95.068 20.7646L95.1081 18.2676C95.1301 16.8943 95.1978 14.5374 95.2586 13.0301L95.3691 10.2896L95.333 7.80398L95.2968 5.31839L95.2164 4.61733L95.1359 3.91627L95.1514 2.34072L95.1669 0.765179L95.0728 0.539882L94.9786 0.314523L94.8321 0.263026L94.6857 0.211466L93.411 0.195406L92.1363 0.179409L92.0089 0.274116L91.8814 0.368823L91.873 0.676717C91.8683 0.845992 91.843 1.22966 91.8166 1.52927L91.7687 2.07394L91.8149 2.69043L91.8611 3.30692L91.927 3.29296L91.9929 3.27894L92.0255 3.36874L92.0581 3.4586L91.9697 3.42476L91.8814 3.39098L91.8736 4.61682C91.8693 5.29105 91.8446 6.29485 91.8187 6.84748L91.7716 7.85229L91.1892 7.80851C90.8688 7.78441 90.5064 7.74375 90.3837 7.71813L90.1606 7.67154L90.0805 7.50507C90.0364 7.41349 89.9741 7.19954 89.9419 7.02956L89.8834 6.72052L89.8658 3.57631L89.8482 0.432174L89.7769 0.334726L89.7057 0.237214L89.2174 0.152322L88.7291 0.0674297L88.0428 0.0365191L87.3564 0.00560859L86.8465 0.063797ZM54.1897 0.187694L52.8895 0.306811L52.4298 0.409102L51.97 0.511394L51.6865 0.691185L51.403 0.870975L50.8997 1.46949C50.6229 1.79867 50.1931 2.28649 49.9446 2.55353L49.4929 3.03905L49.2761 3.47766L49.0593 3.91627L49.0612 4.13933C49.0622 4.26202 49.0868 4.63103 49.1158 4.95938L49.1686 5.55637L49.3975 5.65121C49.5234 5.7034 49.6364 5.75541 49.6486 5.76688C49.6608 5.77829 49.572 5.91704 49.4513 6.07516L49.2317 6.36266L49.1925 8.26241L49.1531 10.1621L49.0266 10.7598C48.957 11.0885 48.865 11.6334 48.822 11.9707L48.744 12.584L48.7412 13.8355L48.7384 15.0869L48.819 15.1841L48.8997 15.2813L48.8456 15.3147L48.7915 15.3481L48.9382 16.7065L49.0849 18.065L49.2143 18.565L49.3436 19.0651L49.4957 19.3617L49.6478 19.6583L49.9558 19.955C50.1251 20.1182 50.446 20.3682 50.6688 20.5106L51.0739 20.7696L51.583 20.9659C52.2737 21.2323 53.1216 21.4487 53.9429 21.5683L54.6266 21.6678L55.6997 21.7083L56.7729 21.7488L57.0865 21.3496L57.4002 20.9503L57.5429 21.2603L57.6858 21.5703L57.8232 21.549C57.8987 21.5372 58.2937 21.3966 58.7009 21.2365C59.1081 21.0765 59.6277 20.8982 59.8556 20.8403L60.2698 20.735L60.4673 20.4352L60.6648 20.1355L60.7063 17.475L60.7478 14.8146L60.6849 14.3685C60.6502 14.1231 60.6033 13.7587 60.5805 13.5588L60.539 13.1952L60.4044 13.072L60.2698 12.949L59.8874 12.8302L59.505 12.7114L58.5172 12.7388C57.9738 12.7538 57.0417 12.7681 56.4458 12.7706L55.3624 12.7752L54.9078 12.6322L54.4531 12.4892L54.0053 12.1926L53.5575 11.8961L53.445 11.5071L53.3325 11.1181L53.3471 9.30171L53.3617 7.48532L53.4239 7.03918C53.5021 6.47865 53.5906 6.1475 53.741 5.85254L53.859 5.62125L54.0559 5.45555L54.2528 5.2899L54.496 5.21706L54.7392 5.14421L55.2686 5.2154C55.5598 5.2546 55.8045 5.29379 55.8124 5.30252C55.831 5.32311 55.7454 6.31856 55.5793 8.01513L55.4462 9.37353L55.4858 9.5314L55.5255 9.68927L55.9041 9.93407L56.2828 10.1788L56.6973 10.291L57.1117 10.4032L57.4798 10.367C58.3123 10.2852 59.9315 10.0587 60.0756 10.0039L60.2302 9.94515L60.3036 9.808C60.3439 9.73261 60.4034 9.49463 60.4357 9.27915L60.4945 8.88744L60.4944 7.33809L60.4943 5.78868L60.6177 5.2349C60.6855 4.93026 60.7602 4.49369 60.7836 4.2647L60.8263 3.84826L60.7517 3.489L60.6771 3.12974L60.3707 2.69444L60.0643 2.25921L59.466 1.71824C59.1369 1.42074 58.6618 0.969061 58.4101 0.714575L57.9525 0.251873L57.7728 0.179409L57.593 0.10688L56.5414 0.0877605L55.4898 0.0686407L54.1897 0.187694ZM74.5142 0.0986587C74.3915 0.113891 73.8752 0.186037 73.367 0.258947L72.4428 0.391576L71.7092 0.382781L70.9755 0.374049L70.3171 0.501706L69.6588 0.6293L69.5102 0.531916L69.3615 0.434532L69.124 0.454608L68.8865 0.474684L68.7561 0.650013L68.6258 0.825279L68.6304 1.44668L68.635 2.06801L68.7703 2.9082L68.9056 3.74839L68.9078 5.07512L68.9099 6.40185L68.9693 7.06034C69.0019 7.42254 69.077 7.96248 69.1362 8.26025L69.2437 8.80159L69.3782 8.88974L69.5127 8.97788L70.9778 9.04429C71.7836 9.08081 72.7692 9.12803 73.1681 9.14926L73.8933 9.18782L73.8516 10.0893C73.6365 14.7501 73.6371 14.6924 73.7753 16.6629L73.8781 18.1287L73.8956 19.6265L73.9131 21.1242L73.9924 21.2668L74.0717 21.4095L74.2451 21.4431C74.3405 21.4616 74.5307 21.5022 74.6677 21.5333L74.917 21.5899L75.2095 21.4925L75.502 21.395L76.2031 21.3861L76.9041 21.3772L77.2226 21.2188L77.5411 21.0604L77.6358 20.8876L77.7306 20.7148L77.6454 20.5052L77.5602 20.2957L77.5385 19.5946C77.5266 19.209 77.5155 18.2109 77.5138 17.3766L77.5109 15.8596L77.4178 15.4583L77.3247 15.0571L77.4155 13.2788L77.5062 11.5005L77.5079 10.3692L77.5096 9.23797L78.4178 9.24027L79.326 9.2425L79.9633 9.3026C80.3139 9.33568 80.8483 9.38169 81.1509 9.40495L81.7012 9.44721L81.8014 9.29425L81.9016 9.14129L82.0028 8.5364L82.1039 7.93145L82.1632 6.65679C82.1958 5.95572 82.2411 5.10967 82.264 4.77666L82.3055 4.1712L82.2237 3.91627L82.1421 3.66133L82.1005 2.25921L82.0589 0.857082L81.9734 0.683027L81.8878 0.508972L81.7541 0.46557C81.6805 0.44167 81.52 0.415539 81.3973 0.407445C81.2746 0.399351 80.9735 0.362386 80.7281 0.325293C79.8065 0.1861 75.1721 0.0170805 74.5142 0.0986587ZM31.2076 0.326759C30.6117 0.351806 30.0237 0.392978 29.901 0.41828C29.7784 0.443582 29.6544 0.45875 29.6256 0.451995C29.5968 0.445303 29.1144 0.488131 28.5535 0.547212L27.5339 0.654666L27.3791 0.776396L27.2243 0.89819L27.2271 1.10073L27.23 1.30321L27.3109 1.49295L27.3918 1.68274L27.341 2.00281C27.3131 2.1789 27.2397 2.8105 27.1781 3.4064L27.0659 4.48986L27.0693 7.74025L27.0727 10.9906L27.1803 13.4125C27.2395 14.7445 27.2874 16.2359 27.2868 16.7266L27.2858 17.6189L27.2199 18.2243L27.154 18.8298L27.149 19.5976L27.144 20.3654L27.2503 20.7314L27.3568 21.0974L27.6 21.3406L27.8432 21.5838L28.21 21.7633L28.5769 21.9428L29.0712 21.9714L29.5656 22L29.7878 21.9266L30.01 21.8534L30.2669 21.6333L30.524 21.4134L30.5654 21.2483L30.6068 21.0831L30.5113 20.8916L30.4158 20.7L30.475 20.211L30.5342 19.7221L30.5841 17.3958C30.6115 16.1164 30.6317 14.0944 30.6289 12.9026L30.6237 10.7357L30.5173 9.49004C30.4588 8.80497 30.4109 8.22309 30.4109 8.19702V8.14967L30.2423 8.16802L30.0738 8.18638L30.0471 8.11047L30.0204 8.0345L30.2142 7.93431L30.408 7.83406L30.4487 8.01022C30.5528 8.46094 31.1415 10.5629 31.3638 11.2774C32.1191 13.7055 32.6705 16.2006 32.897 18.216C33.0927 19.9565 33.2903 20.7828 33.6074 21.1859L33.7395 21.3539L33.869 21.239L33.9985 21.1242L33.9225 21.2689L33.8466 21.4136L33.8847 21.4753C33.9056 21.5092 34.0576 21.6161 34.2223 21.7129L34.5217 21.889L34.9997 21.8878L35.4777 21.8866L36.2099 21.6384L36.9422 21.3903L37.1181 21.2143L37.2941 21.0384V20.8557C37.2941 20.5468 37.4706 19.972 37.8946 18.9005L38.3008 17.8738L38.4674 16.9178C38.559 16.392 38.7045 15.5029 38.7908 14.9421C39.089 13.0015 39.5234 10.3515 39.6161 9.90717L39.7091 9.46104L39.6737 10.178L39.6382 10.895L39.7249 10.896L39.8115 10.897L39.7364 10.9448L39.6612 10.9926L39.5908 12.0432C39.5519 12.621 39.4651 13.6406 39.3977 14.3088C39.3303 14.977 39.2415 16.0421 39.2003 16.6756L39.1256 17.8275L39.1998 18.7392L39.274 19.6509L39.3986 20.2216L39.5231 20.7923L39.6355 21.0179L39.7478 21.2434L39.9134 21.3643L40.0789 21.4851L40.9012 21.3871C41.3535 21.3332 42.1362 21.2551 42.6405 21.2135L43.5576 21.1378L44.9126 21.1713L46.2676 21.2048L46.4971 20.9552L46.7266 20.7056V20.5834C46.7266 20.5162 46.6835 20.296 46.631 20.0942L46.5354 19.7272V19.2508V18.7744L46.6726 18.491L46.8098 18.2076L46.7696 17.0529L46.7295 15.8981L46.7963 13.049L46.8631 10.1998L46.7925 8.71511C46.7535 7.8985 46.7042 6.72294 46.6828 6.10269L46.6439 4.975L46.7605 3.8591L46.877 2.74313L46.7756 2.30994C46.7199 2.07171 46.6391 1.74775 46.5959 1.59001L46.5175 1.30321L46.3946 1.16702L46.2717 1.03075L45.9096 0.932414C45.0259 0.692396 44.6415 0.676972 41.5005 0.755683L39.1742 0.813998L38.8938 0.885825L38.6135 0.957589L38.0719 1.2579L37.5305 1.55814L37.4444 1.76254L37.3584 1.96693L37.4672 2.39987L37.576 2.83281L37.5762 4.0756L37.5764 5.31839L37.44 5.82826C37.2549 6.52046 37.1046 7.70143 37.0354 9.00822C37.0333 9.04697 36.5296 7.57295 35.916 5.73266L34.8003 2.38667L34.7111 1.67102L34.6219 0.955422L34.5195 0.757276L34.417 0.55913L34.1507 0.444092L33.8844 0.329117L33.0877 0.305154L32.291 0.281254L31.2076 0.326759ZM62.9144 0.333897L62.7176 0.38431L62.6819 0.477297L62.6462 0.570283H62.4041H62.162L61.8851 0.800614C61.7328 0.927252 61.5509 1.12062 61.4808 1.2303L61.3533 1.42966L61.3584 2.13123L61.3636 2.83281L61.5376 3.53387L61.7116 4.23487L61.7472 4.6492L61.7827 5.06346L61.8756 5.21221L61.9687 5.3609L62.181 5.44962L62.3933 5.53834L62.8931 5.50041L63.3927 5.46243L64.3169 5.60551L65.241 5.74865L65.9421 5.71137L66.6431 5.67415L67.2568 5.51781C67.5943 5.43184 67.9623 5.31406 68.0744 5.25606L68.2784 5.15058L68.3718 4.92707L68.4651 4.70356L68.4331 4.59674C68.4155 4.53792 68.356 3.83023 68.3008 3.024L68.2004 1.55814L68.1349 1.31405L68.0695 1.06989L67.8662 0.851155L67.6629 0.632423L67.3057 0.508462C67.1093 0.440268 66.7538 0.3534 66.5158 0.315351L66.083 0.246265L64.5971 0.264875L63.1112 0.283485L62.9144 0.333897ZM9.63395 0.357606C9.51126 0.369588 9.08106 0.428796 8.67795 0.489215L7.94502 0.598963L6.2561 0.602723L4.56717 0.606484L4.23168 0.71859L3.89619 0.830696L3.6779 1.02234L3.45962 1.21399L3.39295 1.41793L3.32635 1.62188L3.3347 4.33053L3.34305 7.03918L3.29283 7.46683L3.24267 7.89455L3.34815 8.05554C3.40615 8.14406 3.52424 8.26273 3.6106 8.31933L3.76764 8.42219L5.02777 8.34852C5.72087 8.30805 6.33098 8.25967 6.38356 8.241C6.47215 8.20964 7.22101 8.15247 7.81755 8.13157L8.07249 8.12265L8.14807 8.50504L8.22366 8.88744L8.29664 9.93904L8.36961 10.9906L8.32627 12.9026L8.283 14.8146L8.13794 15.3399L7.99282 15.8651L7.82915 16.0798L7.66542 16.2944L7.44503 16.399L7.22471 16.5035L7.01127 16.5033L6.79783 16.5031L6.59943 16.3821L6.40096 16.261L6.25125 15.9521L6.10154 15.6431L6.07681 15.0695L6.05209 14.4959L6.22436 13.2867L6.39663 12.0775L6.37107 11.6761L6.34551 11.2748L6.22111 11.1584L6.09676 11.0421L5.42362 10.8092C5.05339 10.6811 4.68756 10.5764 4.61064 10.5764H4.47074L4.3362 10.731L4.20166 10.8858L3.62558 10.8484L3.04943 10.8112L3.09226 10.8804L3.13503 10.9496L3.00208 10.9918L2.86913 11.034L2.74804 10.9244L2.62695 10.8148L1.46197 10.9597L0.29706 11.1046L0.148561 11.1959L0 11.2871L0.046334 12.442C0.0717634 13.0772 0.0955995 14.9463 0.0992322 16.5958L0.10586 19.5946L0.252319 19.9133L0.398777 20.2319L0.657979 20.4967L0.917182 20.7615L1.34005 20.9545L1.76292 21.1476L2.27278 21.2592L2.78265 21.3708L4.02544 21.3683L5.26823 21.366L6.09676 21.2588C6.55245 21.1998 7.51572 21.0526 8.2373 20.9316L9.54931 20.7116L9.82852 20.6131C9.98212 20.5589 10.2244 20.4463 10.367 20.3627L10.6262 20.2108L10.9147 19.9023L11.2033 19.5938L11.3753 19.2302C11.7021 18.5393 11.8222 17.8565 11.9276 16.0893C11.9994 14.8845 12.0799 14.1568 12.1885 13.7312L12.2536 13.4762L12.2891 12.4565L12.3246 11.4368L12.1927 9.81157C12.1202 8.91772 12.0255 7.52674 11.9823 6.72052L11.9037 5.25466L11.9065 3.7888L11.9093 2.32294L11.9814 1.7923L12.0534 1.2616L11.9659 1.05198L11.8783 0.842423L11.5357 0.64638L11.193 0.450338L10.78 0.383354C10.3797 0.31841 10.0987 0.312101 9.63395 0.357606ZM23.464 1.30653C23.464 1.34872 23.4269 1.41398 23.3815 1.45165L23.2991 1.5201L23.111 1.3702L22.923 1.22023L23.0449 1.0855L23.1669 0.950706L23.3154 1.09028C23.3972 1.16702 23.464 1.26434 23.464 1.30653ZM4.649 1.83507L4.73084 1.88701L4.69043 1.99229L4.65002 2.09752L4.52893 2.03276L4.40784 1.96795V1.87458V1.78121L4.4875 1.78217C4.53135 1.78274 4.60401 1.80651 4.649 1.83507ZM67.5302 1.8199C67.6589 1.86929 67.6592 1.94794 67.5308 1.9972L67.4305 2.0357L67.3059 1.96897L67.1813 1.9023L67.2187 1.84176C67.2616 1.77242 67.384 1.76381 67.5302 1.8199ZM84.4891 2.47042L84.2653 2.55965L84.1682 2.52243C84.1149 2.5019 84.0539 2.44002 84.0327 2.38489L83.9942 2.28457L84.1417 2.1276L84.2892 1.97063L84.5011 2.17585L84.7128 2.38113L84.4891 2.47042ZM51.2638 2.61599L51.5258 2.74963L51.2134 2.93357L50.9011 3.1175L50.6932 3.15765L50.4854 3.1978L50.3905 3.11903C50.0735 2.85594 50.8535 2.40662 51.2638 2.61599ZM6.10741 3.09838L6.0649 3.14083L6.02239 3.09838L5.97994 3.05587H6.0649H6.14985L6.10741 3.09838ZM34.0726 3.36969L34.1095 3.42947L34.0545 3.46344L33.9995 3.49748L33.8144 3.3008L33.6294 3.10418L33.8325 3.20705C33.9442 3.26358 34.0522 3.33681 34.0726 3.36969ZM53.8009 3.2152C53.8009 3.23273 53.7866 3.24707 53.7691 3.24707C53.7515 3.24707 53.7372 3.23273 53.7372 3.2152C53.7372 3.19768 53.7515 3.18334 53.7691 3.18334C53.7866 3.18334 53.8009 3.19768 53.8009 3.2152ZM83.2667 3.99893L83.0862 4.23493L83.0647 4.04526L83.0432 3.85559L83.224 3.69996L83.4049 3.54432L83.4261 3.65369L83.4473 3.76299L83.2667 3.99893ZM72.3224 4.04839L72.2875 4.13933H72.0305H71.7736V4.04112V3.94291L72.0445 3.8271L72.3154 3.71137L72.3363 3.83437C72.3479 3.90205 72.3416 3.99835 72.3224 4.04839ZM81.7194 3.85253L81.716 3.91627H81.6416H81.5673L81.5387 3.83048L81.5101 3.74476L81.6164 3.76675L81.7227 3.7888L81.7194 3.85253ZM49.4459 4.11811L49.4033 4.16056V4.0756V3.99064L49.4459 4.03309L49.4883 4.0756L49.4459 4.11811ZM73.0722 4.41243L73.1842 4.49433L73.0578 4.60873L72.9314 4.72306L72.7978 4.65162L72.6643 4.58011L72.731 4.45532L72.7978 4.33053H72.879C72.9237 4.33053 73.0106 4.36737 73.0722 4.41243ZM40.248 5.01464C40.0862 5.13306 40.0143 5.11572 39.8184 4.91127L39.6421 4.72727L39.788 4.62504L39.934 4.52275L40.1461 4.72842L40.3583 4.93402L40.248 5.01464ZM60.1742 4.58546C60.1742 4.62052 60.1473 4.6492 60.1143 4.6492C60.0812 4.6492 60.0366 4.62052 60.0149 4.58546L59.9755 4.52173H60.0749H60.1742V4.58546ZM85.4762 4.58546V4.6492H85.3806H85.285V4.58546V4.52173H85.3806H85.4762V4.58546ZM94.7663 4.71178L94.9106 4.89476L94.7626 5.06697L94.6145 5.23911L94.476 5.15269C94.3999 5.10508 94.325 5.03351 94.3097 4.99348L94.2818 4.92076L94.4031 4.72128C94.5503 4.47922 94.5821 4.47839 94.7663 4.71178ZM85.0736 5.36224L85.0402 5.44586L85.0351 5.32368L85.0301 5.20157L85.0686 5.24007L85.1071 5.27856L85.0736 5.36224ZM18.1986 5.63336L18.1552 5.74661L18.0975 5.64356L18.0398 5.54044L18.0823 5.47167L18.1248 5.4029L18.1835 5.46154L18.2421 5.52017L18.1986 5.63336ZM80.1562 5.66612L80.1186 5.72711L80.025 5.69117C79.8933 5.64063 79.9088 5.60519 80.0627 5.60519H80.1939L80.1562 5.66612ZM4.47406 5.9584L4.62632 6.12041L4.4376 6.27088L4.24889 6.42136L4.14615 6.36642C4.08968 6.33615 3.9967 6.23997 3.93946 6.15272L3.83545 5.99396L3.97649 5.89518C4.05406 5.84081 4.16349 5.79639 4.2197 5.79639H4.32186L4.47406 5.9584ZM6.51103 6.36801V6.42971L6.41543 6.39306C6.36285 6.37286 6.31983 6.34507 6.31983 6.3313C6.31983 6.31754 6.36285 6.30625 6.41543 6.30625H6.51103V6.36801ZM21.1059 6.41836V6.53053L20.9841 6.60656L20.8623 6.68266L20.8213 6.57578L20.7803 6.46896L20.8916 6.38758C20.9527 6.34284 21.026 6.30625 21.0543 6.30625H21.1059V6.41836ZM35.509 6.36833L35.6041 6.42843L35.5305 6.50198L35.4569 6.57559L35.3876 6.53276C35.3096 6.48452 35.2925 6.30574 35.3661 6.30721C35.3925 6.30778 35.4567 6.33525 35.509 6.36833ZM51.1241 6.49745V6.62492H51.0672C51.0359 6.62492 50.9949 6.5847 50.976 6.53557L50.9417 6.44621L50.9798 6.4081C51.0008 6.38713 51.0418 6.36999 51.071 6.36999H51.1241V6.49745ZM67.1849 7.05907L66.7706 7.16174L66.2926 7.16123C66.0297 7.16091 65.2697 7.13816 64.6037 7.11069L63.3927 7.06066L62.9044 7.14874L62.416 7.23682L62.3027 7.1539C62.2403 7.10834 62.1424 7.07105 62.0851 7.07105H61.981L61.8384 7.22274L61.6959 7.37448L61.6043 7.679L61.5126 7.98358L61.516 8.40364L61.5193 8.82371L61.6155 9.30171L61.7116 9.7797L61.7681 11.0862C61.7992 11.8048 61.8446 13.0237 61.8689 13.7949L61.9132 15.197L61.8006 17.1217L61.6879 19.0464L61.7163 19.6073L61.7447 20.1682L61.8777 20.4231C61.9509 20.5633 62.0923 20.7554 62.1919 20.8499L62.373 21.0218L62.671 21.1535L62.969 21.2853L63.478 21.3573L63.987 21.4293L65.288 21.3573L66.5891 21.2854L67.1512 21.3542L67.7134 21.423L67.86 21.3561L68.0066 21.2893L68.1071 21.1359L68.2076 20.9825L68.2784 20.2391L68.3491 19.4955L68.2772 18.6528L68.2053 17.8101L68.2665 17.2683C68.3001 16.9704 68.3596 16.1673 68.3986 15.4838L68.4694 14.241L68.4282 13.0938C68.3837 11.8547 68.2574 10.2026 68.1075 8.89745L68.0135 8.07899L68.1409 7.91698L68.2683 7.75491V7.54567C68.2683 7.43057 68.2505 7.28997 68.2287 7.23325L68.1892 7.13007L68.0088 7.03683C67.792 6.92472 67.7189 6.9267 67.1849 7.05907ZM6.2561 7.23038C6.2561 7.27882 6.22742 7.33618 6.19236 7.35785L6.12863 7.39724L6.06617 7.35868L6.00378 7.32006L6.07898 7.19966L6.15412 7.07927L6.20511 7.11082C6.23315 7.12816 6.2561 7.18195 6.2561 7.23038ZM7.27582 7.22662C7.27582 7.24211 7.24714 7.27245 7.21209 7.29412L7.14836 7.3335V7.26601V7.19852H7.21209C7.24714 7.19852 7.27582 7.21114 7.27582 7.22662ZM38.7599 7.42158C38.7599 7.43911 38.7456 7.45345 38.7281 7.45345C38.7105 7.45345 38.6962 7.43911 38.6962 7.42158C38.6962 7.40406 38.7105 7.38972 38.7281 7.38972C38.7456 7.38972 38.7599 7.40406 38.7599 7.42158ZM84.0104 7.54905C84.0104 7.56658 83.996 7.58091 83.9785 7.58091C83.961 7.58091 83.9466 7.56658 83.9466 7.54905C83.9466 7.53152 83.961 7.51718 83.9785 7.51718C83.996 7.51718 84.0104 7.53152 84.0104 7.54905ZM38.1863 7.67651C38.1863 7.69404 38.172 7.70838 38.1545 7.70838C38.1369 7.70838 38.1226 7.69404 38.1226 7.67651C38.1226 7.65899 38.1369 7.64465 38.1545 7.64465C38.172 7.64465 38.1863 7.65899 38.1863 7.67651ZM87.7706 8.75998V8.85558H87.7089H87.6472L87.6838 8.75998C87.704 8.7074 87.7318 8.66438 87.7456 8.66438C87.7593 8.66438 87.7706 8.7074 87.7706 8.75998ZM91.3397 8.82747V8.91931H91.2441H91.1485V8.83435C91.1485 8.78757 91.1668 8.73104 91.1892 8.70861L91.23 8.66782L91.2848 8.70172C91.315 8.7204 91.3397 8.77693 91.3397 8.82747ZM52.4625 8.78808C52.4625 8.8211 52.4338 8.86577 52.3988 8.88744L52.3351 8.92683V8.82747V8.72811H52.3988C52.4338 8.72811 52.4625 8.75507 52.4625 8.78808ZM40.2833 9.19865L40.3565 9.28679L40.267 9.32115L40.1776 9.3555L40.1061 9.28399C40.0668 9.24467 40.0346 9.18954 40.0346 9.16149V9.11051H40.1224C40.1707 9.11051 40.2431 9.15015 40.2833 9.19865ZM31.027 9.28048L30.9845 9.32293L30.942 9.28048L30.8995 9.23797H30.9845H31.0695L31.027 9.28048ZM32.769 9.5885C32.769 9.60603 32.7547 9.62037 32.7372 9.62037C32.7196 9.62037 32.7053 9.60603 32.7053 9.5885C32.7053 9.57098 32.7196 9.55664 32.7372 9.55664C32.7547 9.55664 32.769 9.57098 32.769 9.5885ZM41.0879 9.62318L41.129 9.68971L41.0495 9.7855L40.97 9.88136L40.9175 9.79863C40.8887 9.75319 40.8647 9.68015 40.8641 9.6363L40.8631 9.55664H40.955C41.0055 9.55664 41.0653 9.58659 41.0879 9.62318ZM22.6246 10.2389L22.5573 10.32L22.5008 10.2851C22.4697 10.2659 22.4443 10.2112 22.4443 10.1636V10.0771L22.5239 10.0495L22.6036 10.0219L22.6478 10.0898L22.6919 10.1578L22.6246 10.2389ZM22.2491 10.6986L22.4044 10.818L22.4529 11.2549L22.5014 11.6917L22.5048 12.7721L22.508 13.8526L22.3043 14.0627L22.1006 14.2729H21.5714H21.0422V12.9441C21.0422 12.2133 21.0606 11.3974 21.0831 11.131L21.1241 10.6466L21.2583 10.6202C21.3323 10.6056 21.5504 10.5905 21.7432 10.5864L22.0938 10.5792L22.2491 10.6986ZM40.8517 11.0682L40.778 11.1569L40.6587 11.0377L40.5395 10.9184L40.582 10.8077L40.6245 10.6969L40.7749 10.8382L40.9253 10.9795L40.8517 11.0682ZM51.6984 11.2296C51.86 11.4946 51.8582 11.5102 51.6597 11.5601L51.4944 11.6016L51.4048 11.5273L51.3153 11.453V11.3543V11.2556L51.4208 11.1391C51.5566 10.989 51.5504 10.9869 51.6984 11.2296ZM43.6216 11.6689C43.7804 11.948 43.7186 11.962 43.5137 11.6934L43.3422 11.4686L43.4251 11.469L43.508 11.4695L43.6216 11.6689ZM14.9875 11.7911C14.9875 11.8241 14.9588 11.851 14.9238 11.851H14.8601V11.7517V11.6523L14.9238 11.6917C14.9588 11.7134 14.9875 11.758 14.9875 11.7911ZM36.8905 11.9573L36.8479 11.9997V11.9148V11.8298L36.8905 11.8722L36.9329 11.9148L36.8905 11.9573ZM33.725 12.1697C33.725 12.2047 33.6963 12.2334 33.6613 12.2334C33.6262 12.2334 33.5976 12.2047 33.5976 12.1697C33.5976 12.1346 33.6262 12.106 33.6613 12.106C33.6963 12.106 33.725 12.1346 33.725 12.1697ZM9.68085 12.4864L9.81559 12.6119L9.74267 12.805L9.66976 12.9982H9.5959C9.5553 12.9982 9.48819 12.9574 9.44676 12.9075L9.37143 12.8167L9.41419 12.5888L9.45696 12.3609H9.50157C9.52611 12.3609 9.60679 12.4174 9.68085 12.4864ZM42.499 13.0407L42.4564 13.0832L42.4139 13.0407L42.3715 12.9982H42.4564H42.5414L42.499 13.0407ZM51.888 14.0658C51.8874 14.0921 51.8632 14.1511 51.8341 14.1969L51.7812 14.2803L51.6034 14.2357L51.4255 14.191L51.5776 14.1067C51.748 14.0123 51.8894 13.9936 51.888 14.0658ZM50.7099 14.2091L50.7493 14.2729H50.6499H50.5505V14.2091C50.5505 14.1741 50.5775 14.1454 50.6105 14.1454C50.6435 14.1454 50.6882 14.1741 50.7099 14.2091ZM54.0559 14.5278C54.0559 14.5553 54.0174 14.5927 53.9704 14.6107L53.885 14.6435L53.7951 14.5856L53.7053 14.5278L53.7951 14.47L53.885 14.4121L53.9704 14.445C54.0174 14.4629 54.0559 14.5003 54.0559 14.5278ZM40.0058 14.8239L40.1621 14.9926L40.1614 15.1585C40.161 15.2498 40.1429 15.4321 40.1211 15.5635L40.0816 15.8025H39.9974H39.9131L39.8461 15.5635C39.8092 15.4321 39.7609 15.1739 39.7387 14.9899L39.6984 14.6553H39.7739C39.8155 14.6553 39.9198 14.7312 40.0058 14.8239ZM37.9633 15.1651L38.0027 15.2289H37.9352H37.8677V15.1651C37.8677 15.1301 37.8803 15.1014 37.8958 15.1014C37.9113 15.1014 37.9416 15.1301 37.9633 15.1651ZM45.099 16.8381C45.0462 17.0843 45.0338 17.102 44.9501 17.0502L44.8859 17.0105L44.9936 16.8212C45.1317 16.5785 45.1539 16.5821 45.099 16.8381ZM33.5976 16.829V16.8859H33.5057C33.4552 16.8859 33.3986 16.8613 33.38 16.8311L33.3461 16.7763L33.3825 16.7399L33.4188 16.7035L33.5082 16.7378C33.5573 16.7567 33.5976 16.7977 33.5976 16.829ZM50.2956 16.9178C50.2956 16.9353 50.2813 16.9497 50.2637 16.9497C50.2462 16.9497 50.2319 16.9353 50.2319 16.9178C50.2319 16.9003 50.2462 16.8859 50.2637 16.8859C50.2813 16.8859 50.2956 16.9003 50.2956 16.9178ZM55.0827 18.2427L55.0119 18.3136V18.2159C55.0119 18.1621 55.0328 18.0972 55.0583 18.0716L55.1048 18.0252L55.1292 18.0985L55.1537 18.1717L55.0827 18.2427ZM46.0456 18.2484L46.0793 18.3362L46.0078 18.4078C45.9156 18.5 45.7904 18.4991 45.7327 18.4058L45.6873 18.3325L45.8049 18.2465C45.9534 18.138 46.0033 18.1384 46.0456 18.2484ZM15.2615 18.6656L15.4162 18.7244L15.4517 18.8169L15.4872 18.9095L15.3406 19.2202L15.194 19.5309L14.9637 19.7955L14.7334 20.06L14.4353 20.2575L14.1371 20.455H13.9962H13.8552L13.8197 20.319L13.7841 20.1831L14.1408 19.6976C14.6168 19.0498 14.9873 18.6067 15.053 18.6067C15.0825 18.6067 15.1764 18.6332 15.2615 18.6656ZM3.48218 19.26C3.35044 19.4089 3.22056 19.5556 3.19347 19.5859L3.14427 19.6409L3.06906 19.5943L2.99379 19.5478L3.26797 19.2685L3.54209 18.9891H3.63189H3.72163L3.48218 19.26ZM53.7309 19.7858L53.7372 19.8495H53.6717H53.6062L53.3566 19.5331L53.1069 19.2167L53.1768 19.1325L53.2467 19.0483L53.4857 19.3852C53.6171 19.5704 53.7275 19.7507 53.7309 19.7858ZM44.9208 19.2228L44.8783 19.2653L44.8358 19.2228L44.7933 19.1803H44.8783H44.9633L44.9208 19.2228ZM45.5116 19.3875L45.5075 19.5946L45.4478 19.4453L45.3879 19.296L45.4237 19.2382C45.4889 19.1326 45.5157 19.178 45.5116 19.3875ZM6.89343 19.5946C6.89343 19.6121 6.87909 19.6265 6.86156 19.6265C6.84403 19.6265 6.82969 19.6121 6.82969 19.5946C6.82969 19.5771 6.84403 19.5627 6.86156 19.5627C6.87909 19.5627 6.89343 19.5771 6.89343 19.5946ZM24.3252 19.7635L24.7429 19.9007L24.7182 19.9707L24.6935 20.0407L24.1903 20.025C23.9135 20.0163 23.6469 19.9941 23.5978 19.9755L23.5086 19.9418L23.6568 19.7841C23.8358 19.5935 23.8096 19.5943 24.3252 19.7635ZM45.898 20.279V20.3382L45.8245 20.3136C45.784 20.3001 45.7256 20.2206 45.6946 20.1369L45.6383 19.9848L45.7681 20.1023C45.8396 20.1669 45.898 20.2465 45.898 20.279ZM55.6723 20.2957L55.7089 20.3913H55.6472H55.5854V20.2957C55.5854 20.2431 55.5967 20.2001 55.6105 20.2001C55.6243 20.2001 55.6521 20.2431 55.6723 20.2957ZM41.9598 20.5635C42.2598 20.8564 42.2595 20.8616 41.9398 20.9671L41.6781 21.0535L41.5159 20.9613C41.4267 20.9107 41.3231 20.8204 41.2858 20.7606L41.2179 20.6519L41.3703 20.4897L41.5227 20.3275H41.6204H41.7182L41.9598 20.5635ZM84.3417 20.6736L84.3162 20.8922L84.2286 20.8585L84.141 20.825L84.2366 20.64C84.3592 20.4029 84.3728 20.4072 84.3417 20.6736ZM24.1651 20.6781C24.1214 20.7306 24.0779 20.7736 24.0685 20.7736C24.059 20.7736 24.0347 20.7306 24.0145 20.6781L23.9779 20.5825H24.1112H24.2444L24.1651 20.6781Z" fill="#F0F0F0"/>
</svg>
