<svg width="132" height="38" viewBox="0 0 132 38" fill="none" xmlns="http://www.w3.org/2000/svg">
<g clip-path="url(#clip0_226_192)">
<path d="M67.511 4.75387H69.4761V4.27518L68.9821 3.79213H66.5321L66.0391 4.27518V8.1148L66.5321 8.5935H68.9821L69.4761 8.1148V7.63611H67.511V6.67448H69.4761V5.7172H67.511V4.75387Z" fill="#F0F0F0"/>
<path d="M69.1452 -0.5H66.3721V2.21525H69.1452V-0.5Z" fill="#3BBFF0"/>
<path d="M63.7516 3.79211V5.71634H62.2797V3.79211H61.3016L60.8086 4.27516V8.11479L61.3016 8.59348H62.2797V6.67361H63.7516V8.59348H64.7341L65.2227 8.11479V4.27516L64.7341 3.79211H63.7516Z" fill="#F0F0F0"/>
<path d="M56.071 3.79213L55.5771 4.27518V4.75387H57.0491V8.11395L57.5421 8.59254H58.0316L58.5202 8.11395V4.75387H59.9913V4.27518L59.5018 3.79213H56.071Z" fill="#F0F0F0"/>
<path d="M55.6602 10.2478V29.4573H69.3939L71.3544 27.5375V12.172L69.3939 10.2522H55.6602V10.2478ZM61.5463 14.0918H65.4718V25.6186H61.5463V14.0918Z" fill="#F0F0F0"/>
<path d="M73.3154 10.2478V29.4573H87.0492L89.0098 27.5375V21.7737L87.0492 19.8539L89.0098 17.9341V12.1712L87.0492 10.2513H73.3154V10.2478ZM79.2016 21.7745H83.1272V25.6186H79.2016V21.7745ZM79.2016 17.9306V14.0909H83.1272V17.9306H79.2016Z" fill="#F0F0F0"/>
<path d="M92.935 10.2478L90.9746 12.1677V27.5332L92.935 29.4529H104.707L106.668 27.5332V12.1677L104.707 10.2478H92.935ZM96.8563 14.0918H100.782V25.6186H96.8563V14.0918Z" fill="#F0F0F0"/>
<path d="M124.32 19.8548L128.026 16.2265L131.731 19.8548L128.026 23.483L124.32 19.8548Z" fill="#3BBFF0"/>
<path d="M118.436 10.2478V16.0108L116.476 17.9306L114.515 16.0108V10.2478H110.589L108.628 12.172V17.9306L110.589 19.8548L108.628 21.7745V27.5375L110.589 29.4573H114.515V23.6944L116.476 21.7745L118.436 23.6944V29.4573H122.363L124.323 27.5375V21.7745L122.363 19.8548L124.323 17.9306V12.172L122.363 10.2478H118.436Z" fill="#F0F0F0"/>
<path d="M47.8167 10.2478V16.0108L41.9305 10.2478H38.0094L36.0488 12.172V27.5375L38.0094 29.4573H41.9305V17.9306L47.8167 23.6936V29.4564H51.7423L53.7029 27.5367V12.1712L51.7423 10.2469L47.8167 10.2478Z" fill="#F0F0F0"/>
<path d="M32.1196 10.2904H20.3473L18.3867 12.2103V27.5758L20.3473 29.4956H24.2729V21.8128H28.194V29.4999H32.1152L34.0757 27.5801V12.2146L32.1196 10.2904ZM26.2334 18.679L23.7267 16.2249L26.2334 13.7706L28.7401 16.2249L26.2334 18.679Z" fill="#F0F0F0"/>
<path d="M2.69104 10.2478L0.730469 12.172V19.8548L2.69104 21.7745H10.5378V25.6133H6.61662V23.6936H0.730469V27.5375L2.69104 29.4573H14.4633L16.4239 27.5375V19.8548L14.4633 17.9306H6.61662V14.0909H10.5378V16.0108H16.4239V12.172L14.4633 10.2478H2.69104Z" fill="#F0F0F0"/>
</g>
<defs>
<clipPath id="clip0_226_192">
<rect width="131" height="38" fill="white" transform="translate(0.730469)"/>
</clipPath>
</defs>
</svg>
