<svg width="70" height="32" viewBox="0 0 70 32" fill="none" xmlns="http://www.w3.org/2000/svg">
<path fill-rule="evenodd" clip-rule="evenodd" d="M27.7065 0.0217899C27.5085 0.0930339 27.362 0.252442 27.3049 0.459061L27.2817 0.54274V3.20372L27.3113 3.29577C27.3664 3.46719 27.4944 3.61147 27.6598 3.68842L27.7503 3.73056L29.6093 3.7309L29.7054 3.75592C29.9018 3.80708 30.054 3.92898 30.1338 4.09905L30.177 4.19113L30.1937 6.61781L30.2429 6.71822C30.2699 6.77345 30.3285 6.85725 30.373 6.90442L30.454 6.99021L30.6623 7.08641L31.6497 7.0961C32.1928 7.10144 32.656 7.1122 32.679 7.12001C32.8549 7.17974 33.0065 7.32474 33.0746 7.49851L33.1033 7.57174L33.1162 8.61691L33.0895 8.72191C33.0363 8.93045 32.8869 9.08837 32.6814 9.15319L32.575 9.18674L30.6958 9.18793L30.599 9.21106C30.4086 9.25656 30.2582 9.39037 30.1725 9.59054L30.1268 9.69718V12.4084L30.2034 12.6301L30.3833 12.8289L30.6288 12.9439L32.6873 12.9606L32.7626 13.0006C32.9069 13.077 33.0193 13.1986 33.0745 13.3379L33.1041 13.4125L33.1236 15.6886L33.1419 15.7397C33.1751 15.8329 33.2165 15.9007 33.2871 15.9775L33.3568 16.0534L33.5901 16.1655L41.4234 16.1655L41.5282 16.116C41.659 16.054 41.7793 15.9354 41.843 15.8053L41.892 15.7053V12.8937L41.8443 12.795C41.779 12.6597 41.6714 12.5501 41.5373 12.4821L41.4251 12.4251L34.3442 12.4084L34.2648 12.3744C34.0932 12.3009 33.9526 12.1398 33.9079 11.9657L33.8819 11.864L33.8923 10.7507L34.0025 10.5269L34.0897 10.4506C34.1376 10.4087 34.2182 10.3576 34.2689 10.337L34.3609 10.2997L36.3859 10.2816L36.4419 10.2621C36.595 10.2086 36.7122 10.1009 36.8015 9.93148L36.8545 9.83107L36.8713 7.43786L36.9246 7.32908C37.0011 7.17305 37.1092 7.07155 37.2646 7.00991L37.3231 6.98666L39.2812 6.96767L39.3649 6.93836C39.5523 6.87269 39.6979 6.71695 39.7564 6.51952L39.7918 6.40024L39.7917 4.33147L39.8111 4.25293C39.8484 4.10169 39.959 3.96438 40.118 3.87171L40.2017 3.82294L42.2434 3.80621L42.4693 3.71065L42.5633 3.61813C42.617 3.56525 42.6762 3.48533 42.7014 3.43161L42.7455 3.33761L42.755 0.576211L42.7188 0.475797C42.6475 0.277378 42.4984 0.134003 42.3032 0.0760304L42.2123 0.0490357L39.549 0.0492867L39.4482 0.0799633C39.2504 0.140128 39.0879 0.303753 39.0313 0.499762L39.0051 0.590654L39.0046 2.65144L38.9823 2.74595C38.9377 2.93546 38.7969 3.09899 38.6097 3.17862L38.5114 3.22046L36.4696 3.23719L36.3943 3.2788C36.2367 3.36586 36.1333 3.47807 36.0728 3.62779L36.0345 3.72253L36.0177 6.099L35.9768 6.18268C35.9542 6.2287 35.8994 6.30497 35.855 6.35215L35.7742 6.43793L35.5659 6.53413H34.4111L34.3023 6.48088C34.1362 6.39956 34.0438 6.29831 33.9796 6.12727L33.9438 6.03206L33.9258 3.78947L33.8848 3.70579C33.8292 3.59231 33.6877 3.45454 33.5704 3.39958L33.4739 3.35434L31.5158 3.33585L31.463 3.31742C31.307 3.263 31.1763 3.14747 31.0938 2.99094L31.0472 2.90248L31.0305 0.475797L30.9468 0.277462L30.8548 0.184076C30.8042 0.132698 30.7251 0.0718967 30.6791 0.0489353L30.5954 0.00719636L27.767 0L27.7065 0.0217899ZM21.6167 24.0991C21.4464 24.1057 21.228 24.1238 21.1313 24.1394C21.0347 24.155 20.9085 24.1747 20.851 24.1831C19.9138 24.3213 19.0356 24.8426 18.5974 25.5208C18.5707 25.5622 18.5362 25.615 18.5209 25.638C18.2874 25.9879 18.0778 26.6737 18.0069 27.3199L17.9775 27.5877L17.9772 28.4914L18.0077 28.7759C18.1476 30.0781 18.6375 30.9573 19.5163 31.4832C19.5866 31.5252 20.0054 31.7298 20.0213 31.7298C20.0284 31.7298 20.0834 31.748 20.1435 31.7702C20.3926 31.8624 20.7989 31.949 21.1366 31.9818L21.3238 32L23.65 31.9874L23.9486 31.9334C25.5014 31.6524 26.3804 30.7767 26.5303 29.3617L26.5533 29.1441L26.5537 28.1208L26.5268 28.0419C26.5114 27.9967 26.4646 27.9244 26.4171 27.8725L26.3344 27.7819L26.1437 27.7048H22.0769L21.9049 27.7649L21.8184 27.8477C21.7709 27.8933 21.7154 27.9664 21.6952 28.0102L21.6585 28.0897V28.7926L21.695 28.8717C21.7432 28.976 21.8746 29.1025 21.9775 29.1437L22.0602 29.1768L24.2191 29.1943L24.2703 29.2224C24.4025 29.2949 24.4617 29.3902 24.4617 29.5305V29.6218L24.4113 29.733C24.2452 30.0995 24.0179 30.2721 23.5503 30.3873L23.3655 30.4327H21.374L21.1821 30.3852C20.3556 30.1801 20.0631 29.5827 20.0544 28.0814C20.045 26.4738 20.3776 25.8948 21.4221 25.7008L21.625 25.6631H23.4492L23.6333 25.7025C24.0455 25.7909 24.2731 25.9356 24.421 26.2029C24.58 26.4904 24.7781 26.6545 25.0227 26.7013L25.1508 26.7258H25.481C26.1484 26.7258 26.3556 26.5949 26.3819 26.1568L26.3904 26.0145L26.364 25.8609C26.2271 25.0657 25.2861 24.381 24.0099 24.1481C23.6729 24.0866 22.5414 24.0634 21.6167 24.0991ZM64.2928 24.0999L63.9329 24.1099L63.6652 24.1468C62.2588 24.3406 61.5721 24.8503 61.3516 25.8639L61.3079 26.0647L61.3064 26.6337L61.3529 26.8157C61.5326 27.5186 62.0221 27.9668 63.0125 28.3354C63.5545 28.5371 64.4746 28.7923 64.9036 28.8599C65.1634 28.9009 65.9823 29.0818 66.2759 29.1631C66.7499 29.2943 67.0618 29.4746 67.1616 29.6749L67.2048 29.7615V29.8389C67.2048 30.0104 67.1355 30.1507 66.9935 30.2663L66.9078 30.3362L66.6274 30.4304L66.1504 30.4373C65.8881 30.4411 65.3272 30.4355 64.904 30.4249L64.1346 30.4056L63.9578 30.3749C63.6018 30.3129 63.3667 30.1624 63.2267 29.9069C63.0394 29.565 62.8917 29.4306 62.6282 29.3624L62.5285 29.3366H61.7491L61.6444 29.3723C61.4397 29.4423 61.3162 29.5613 61.2615 29.7415L61.2255 29.8597L61.2354 30.0291C61.2769 30.7452 61.8884 31.4194 62.7782 31.73C63.088 31.8381 63.2328 31.8766 63.5112 31.9245L63.7488 31.9655L64.3681 31.9805C65.1993 32.0006 66.3632 32.0008 66.6107 31.9809C68.1553 31.8567 68.9643 31.3279 69.2224 30.2738L69.2695 30.0813L69.2689 29.4119L69.2149 29.2278C69.0617 28.7057 68.7017 28.3094 68.0455 27.9406C67.6297 27.7069 66.9482 27.5041 65.799 27.272C65.054 27.1215 64.7933 27.0625 64.4685 26.9708C63.8309 26.7909 63.531 26.6367 63.427 26.4352L63.3826 26.3492L63.3829 26.2572C63.3834 26.139 63.4091 26.0505 63.4719 25.9515L63.5221 25.8724L63.6187 25.8102C63.6735 25.7751 63.7771 25.7307 63.8576 25.708L63.9999 25.6679L64.2576 25.6592C64.3994 25.6544 64.8814 25.6594 65.3287 25.6702L66.1421 25.6899L66.3174 25.7154C66.6971 25.7706 66.9591 25.938 67.1 26.2153C67.1705 26.3543 67.2639 26.481 67.3613 26.57L67.4537 26.6544L67.6817 26.7509H68.6363L68.746 26.6969C68.8839 26.629 68.9712 26.5448 69.0271 26.4257L69.0708 26.3325L69.0695 25.9141L69.0318 25.7667C68.9803 25.5651 68.9075 25.4188 68.7514 25.2028C68.4107 24.7317 67.5426 24.2819 66.7445 24.1631L66.527 24.1307L66.0416 24.1152C65.3694 24.0938 64.7184 24.0881 64.2928 24.0999ZM0.847033 24.1694C0.752978 24.2169 0.731021 24.2616 0.73072 24.4065L0.730469 24.5223L0.782082 24.6138C0.810466 24.6641 0.898111 24.804 0.976835 24.9247C1.05558 25.0455 1.14414 25.1819 1.17366 25.2279C1.30004 25.425 1.50764 25.7467 1.65954 25.981C1.70727 26.0547 1.78248 26.1714 1.82666 26.2404C1.87084 26.3095 1.94607 26.4262 1.99385 26.4999C2.2771 26.9364 2.74343 27.6579 2.9751 28.0179C3.23817 28.4268 3.33036 28.5695 3.44852 28.7508C3.5175 28.8567 3.60255 28.9885 3.6375 29.0437L3.70106 29.1441L3.7178 31.5708L3.76603 31.6675C3.82532 31.7865 3.93392 31.8848 4.05683 31.9308L4.14974 31.9655L5.42484 31.9557L5.49294 31.9221C5.63969 31.8496 5.73745 31.7339 5.77559 31.5875L5.80139 31.4884V29.2198L5.83257 29.1401C5.84971 29.0963 5.91938 28.9759 5.98738 28.8726C6.05538 28.7693 6.16846 28.5961 6.23868 28.4877C6.30892 28.3793 6.40304 28.2341 6.44786 28.1651C6.49268 28.096 6.53313 28.032 6.53775 28.0228C6.54235 28.0136 6.59808 27.927 6.66158 27.8303C6.72507 27.7337 6.81093 27.6019 6.85236 27.5375C6.8938 27.473 6.96679 27.3601 7.01457 27.2864C7.06235 27.2128 7.15262 27.0735 7.21519 26.9768C7.27777 26.8802 7.38505 26.7145 7.45358 26.6086C7.52211 26.5028 7.6397 26.3214 7.71486 26.2056C7.79002 26.0898 7.89242 25.9317 7.9424 25.8542C8.22732 25.4124 8.51708 24.9654 8.61167 24.8216C8.65238 24.7597 8.71075 24.6611 8.74138 24.6023L8.79709 24.4955V24.3041L8.7591 24.2472C8.73821 24.2159 8.6949 24.1772 8.66287 24.1611L8.60463 24.1318L7.31598 24.132L7.17781 24.1651C6.85283 24.243 6.61316 24.4455 6.42495 24.8012C6.37868 24.8886 6.31625 25.0054 6.28621 25.0606C6.23266 25.159 5.91896 25.7332 5.79244 25.9643C5.72558 26.0864 5.70321 26.1276 5.58338 26.3492C5.54355 26.4229 5.43322 26.6245 5.3382 26.7973C5.24317 26.9701 5.16544 27.1152 5.16544 27.1196C5.16544 27.1424 5.06425 27.2366 4.99808 27.2755L4.92277 27.3198L4.655 27.3185L4.59972 27.289C4.5074 27.2398 4.42528 27.1432 4.32865 26.97C4.27802 26.8793 4.2121 26.7627 4.18216 26.711C4.15222 26.6593 4.07315 26.5207 4.00644 26.4031C3.93973 26.2854 3.86917 26.1611 3.84962 26.1269C3.79379 26.0292 3.55543 25.6112 3.40618 25.3493C3.33144 25.2181 3.25715 25.0882 3.24108 25.0606C3.22501 25.033 3.15625 24.9131 3.08828 24.7943L2.96469 24.5782L2.71171 24.3195L2.58716 24.2565C2.51866 24.2219 2.40237 24.1799 2.32873 24.1631L2.19484 24.1326L0.921658 24.1317L0.847033 24.1694ZM9.79482 24.1621C9.69098 24.1966 9.56156 24.3123 9.50325 24.4228L9.45815 24.5083L9.45835 29.2947L9.49465 29.5123C9.61297 30.2214 9.84306 30.7009 10.2696 31.1275L10.4623 31.3201L10.6297 31.4317C11.0077 31.6837 11.3752 31.8242 11.9434 31.9338L12.2195 31.9871L14.3034 32L14.4822 31.982C14.9217 31.9378 15.3497 31.8301 15.7006 31.6755C15.8796 31.5966 15.9834 31.5368 16.2408 31.364C16.3301 31.304 16.5889 31.0497 16.6945 30.9182C16.9762 30.567 17.1344 30.2168 17.2539 29.6796L17.3061 29.4453L17.3164 24.5123L17.2791 24.4352C17.2323 24.3385 17.1134 24.2218 17.0147 24.1755L16.939 24.1401L15.6854 24.1302L15.5895 24.1661C15.4604 24.2144 15.3702 24.2956 15.3084 24.4193L15.2571 24.522L15.2567 26.6824C15.2565 27.8707 15.2493 28.9483 15.2406 29.0772L15.2248 29.3115L15.1835 29.4788C15.0575 29.9892 14.777 30.2758 14.2836 30.3986L14.105 30.443L12.571 30.4305L12.412 30.38C11.918 30.2232 11.6697 29.9217 11.5634 29.3495L11.5346 29.1943L11.5158 24.525L11.4943 24.4614C11.4818 24.4243 11.4294 24.354 11.3692 24.2934L11.2656 24.1892L11.0786 24.1317L9.87654 24.1349L9.79482 24.1621ZM31.3401 24.143C31.3079 24.1463 31.1573 24.1602 31.0054 24.1741C30.8535 24.1879 30.6765 24.2108 30.6121 24.2249C30.5477 24.2389 30.4538 24.2575 30.4035 24.2661C30.1726 24.3057 29.8091 24.4283 29.5546 24.5526C28.8236 24.9096 28.3665 25.4707 28.1525 26.2739C28.1267 26.3706 28.0837 26.5325 28.0569 26.6337C28.0301 26.735 27.994 26.8706 27.9766 26.935C27.9592 26.9994 27.9215 27.1425 27.8927 27.253C27.8325 27.4838 27.7788 27.6873 27.7182 27.914C27.6948 28.0015 27.6569 28.1446 27.634 28.232C27.6111 28.3194 27.5694 28.4776 27.5414 28.5835C27.5134 28.6893 27.4708 28.8512 27.4468 28.9433C27.4228 29.0353 27.3863 29.1746 27.3656 29.2529C27.345 29.3311 27.3194 29.429 27.3087 29.4704C27.298 29.5119 27.2707 29.6154 27.248 29.7006C27.2253 29.7858 27.1884 29.9251 27.166 30.0102C27.1436 30.0953 27.1063 30.2365 27.083 30.324C26.9871 30.6847 26.8888 31.0607 26.8205 31.3281C26.7331 31.6706 26.7756 31.8294 26.9803 31.9247L27.0641 31.9637L28.3528 31.9634L28.4666 31.9232C28.5939 31.8783 28.7005 31.7988 28.7968 31.6769L28.8614 31.5952L28.9033 31.4574C28.9263 31.3817 28.9522 31.2896 28.9608 31.2528C28.9695 31.216 29.0039 31.0842 29.0372 30.9599C29.0706 30.8357 29.1065 30.7001 29.117 30.6587C29.1274 30.6173 29.1554 30.5194 29.1791 30.4412L29.2222 30.299L29.2801 30.2349C29.312 30.1996 29.3762 30.1506 29.4228 30.126L29.5076 30.0813H32.7878L32.8714 30.1258C32.9769 30.1818 33.035 30.2428 33.0839 30.3491L33.1225 30.4327L33.1392 31.6386L33.1959 31.7269C33.2562 31.8208 33.3152 31.8718 33.4237 31.9237L33.4907 31.9557L34.7667 31.9652L34.8642 31.9287C34.9871 31.8827 35.1062 31.7731 35.1582 31.658L35.1977 31.5708V24.525L35.153 24.4297C35.0945 24.305 34.986 24.1983 34.8797 24.161L34.796 24.1316L33.0974 24.1343C32.1631 24.1359 31.3723 24.1398 31.3401 24.143ZM36.2102 24.1595C36.0691 24.2085 35.9644 24.3065 35.8909 24.4581L35.8504 24.5418V31.5708L35.8995 31.6677C35.9623 31.7916 36.0618 31.883 36.1833 31.9285L36.2793 31.9644L42.8125 31.9557L42.8972 31.911C42.9986 31.8575 43.0881 31.7626 43.1415 31.6519L43.1806 31.5708V30.8009L43.1362 30.7077C43.0827 30.5954 42.9532 30.4734 42.8416 30.4302L42.7622 30.3994L38.2436 30.3825L38.185 30.3558C38.0903 30.3125 38.025 30.2472 37.9737 30.1443L37.9256 30.0478L37.9089 24.4748L37.8614 24.3995C37.7941 24.2927 37.6897 24.2036 37.5864 24.165L37.4976 24.1317L36.2855 24.1333L36.2102 24.1595ZM48.3436 24.1405C48.3298 24.1434 48.2055 24.1544 48.0675 24.1651C46.4094 24.2926 45.4574 25.0098 45.0904 26.4078C45.0675 26.4953 45.0288 26.6421 45.0044 26.7342C44.98 26.8262 44.9413 26.9731 44.9182 27.0605C44.8952 27.1479 44.8584 27.2873 44.8363 27.3701C44.7617 27.6507 44.6949 27.905 44.6518 28.073C44.6281 28.1651 44.5914 28.3044 44.5702 28.3826C44.5489 28.4609 44.512 28.6002 44.4881 28.6922C44.4157 28.9713 44.3641 29.1679 44.3103 29.37C44.2821 29.4759 44.2413 29.6303 44.2196 29.7131C44.1978 29.796 44.1612 29.9353 44.1381 30.0227C44.115 30.1102 44.0757 30.2608 44.0508 30.3574C44.0258 30.4541 43.9876 30.5972 43.9657 30.6754C43.9279 30.8112 43.9092 30.8825 43.8476 31.1273C43.8325 31.1871 43.8025 31.299 43.7808 31.376C43.7013 31.6576 43.7613 31.844 43.9584 31.9288L44.0404 31.9641H45.3304L45.4415 31.9222C45.5682 31.8745 45.661 31.8113 45.7402 31.7186C45.8415 31.6 45.8559 31.5611 45.9927 31.0352C46.0142 30.9524 46.0647 30.7631 46.1048 30.6146L46.1777 30.3446L46.2239 30.2748C46.2741 30.1989 46.3917 30.1156 46.4854 30.0896L46.5445 30.0731L49.7243 30.073L49.8249 30.1205C49.927 30.1688 50.0097 30.2471 50.0624 30.3451L50.0915 30.3993L50.1092 31.621L50.1559 31.7047C50.2149 31.8106 50.3111 31.8912 50.4274 31.9321L50.5184 31.9641L51.7661 31.9627L51.855 31.9244C51.9675 31.8758 52.0757 31.7745 52.1275 31.6693L52.1677 31.5875V24.5083L52.1321 24.433C52.0838 24.3307 51.9861 24.222 51.9023 24.1772L51.833 24.1401L50.1009 24.1377C49.1482 24.1364 48.3574 24.1377 48.3436 24.1405ZM53.0715 24.1887L52.8703 24.3912L52.8119 24.5585L52.812 31.5427L52.8831 31.7285L52.9579 31.8043C52.9991 31.8461 53.0678 31.8972 53.1107 31.918L53.1886 31.9557L58.4436 31.9557L58.6612 31.9193C59.1626 31.8354 59.4907 31.717 59.9049 31.4703C61.0192 30.8068 61.2801 29.1717 60.4258 28.2051C60.3779 28.1508 60.3152 28.0575 60.2865 27.9977L60.2344 27.8889L60.2355 27.504L60.2985 27.3868C60.3332 27.3224 60.3882 27.2207 60.4207 27.1609C60.4532 27.1011 60.5016 26.9893 60.5283 26.9124L60.5767 26.7727L60.6155 26.4019L60.5755 25.9201L60.527 25.7516C60.2746 24.8745 59.4683 24.2929 58.3265 24.1642L58.042 24.1321L53.2388 24.1338L53.0715 24.1887ZM58.1278 25.7023C58.2739 25.7707 58.3813 25.8758 58.4556 26.0229L58.5106 26.1317V26.6672L58.4638 26.7676C58.3745 26.959 58.1861 27.1037 57.9754 27.1427L57.8768 27.1609H55.2703L55.1261 27.1246L54.9563 26.9761L54.8873 26.7915V26.0121L54.915 25.9296C54.9506 25.8235 55.0209 25.7418 55.1267 25.6837L55.2109 25.6374L58.0085 25.6463L58.1278 25.7023ZM32.8313 25.7241C32.9254 25.7558 33.0243 25.8481 33.0753 25.9519L33.1225 26.048V28.14L33.0906 28.2226C33.073 28.2681 33.029 28.3375 32.9928 28.3768L32.9269 28.4483L32.7447 28.5165L30.177 28.5165L30.0766 28.4685C29.97 28.4176 29.9303 28.3809 29.8668 28.275L29.8275 28.2093L29.8255 27.9726L29.8733 27.8052C29.8996 27.7132 29.9392 27.572 29.9612 27.4914C30.1568 26.7762 30.1886 26.6689 30.2397 26.5501C30.5236 25.8907 30.9168 25.7103 32.0782 25.7069L32.7744 25.7049L32.8313 25.7241ZM49.8013 25.7242C49.8961 25.7564 49.9785 25.8255 50.037 25.9218L50.0925 26.0132V28.1902L50.0441 28.2738C49.9856 28.3751 49.9349 28.4216 49.8247 28.4754L49.741 28.5162H47.147L47.0623 28.4767C46.8181 28.363 46.7509 28.1768 46.8382 27.8554C46.8658 27.7542 46.9107 27.5885 46.9381 27.4873C46.9655 27.386 47.0059 27.2392 47.0278 27.1609C47.0498 27.0827 47.0871 26.9471 47.1108 26.8597C47.2804 26.2332 47.6768 25.8347 48.2348 25.7299L48.352 25.7079L49.7444 25.7049L49.8013 25.7242ZM58.3951 28.6944L58.4873 28.7556C58.6453 28.8604 58.7473 29.0148 58.8049 29.2361L58.8419 29.3784V29.7131L58.8048 29.8554C58.7372 30.114 58.6038 30.2857 58.3935 30.3847L58.2763 30.4399L57.9081 30.4767L55.2304 30.4651L55.1676 30.444C55.1331 30.4323 55.0691 30.387 55.0254 30.3431L54.9459 30.2635L54.8871 30.098L54.8892 28.9767L54.9186 28.9043C54.9741 28.7675 55.0745 28.6776 55.222 28.6326C55.245 28.6255 55.9013 28.6192 56.6803 28.6184L58.0968 28.6169L58.3951 28.6944Z" fill="#F0F0F0"/>
</svg>
