<?xml version="1.0" encoding="utf-8"?>
<!-- Generator: Adobe Illustrator 27.2.0, SVG Export Plug-In . SVG Version: 6.00 Build 0)  -->
<svg version="1.1" id="Layer_1" xmlns="http://www.w3.org/2000/svg" xmlns:xlink="http://www.w3.org/1999/xlink" x="0px" y="0px"
	 viewBox="0 0 51.1 22" style="enable-background:new 0 0 51.1 22;" xml:space="preserve">
<style type="text/css">
	.st0{fill-rule:evenodd;clip-rule:evenodd;fill:#FFFFFF;}
</style>
<g id="Shape_3_copy">
	<g>
		<path class="st0" d="M22.1,10.6l1.5-0.1l-0.8-2L22.1,10.6z M27,7.2c0,0,0.1,0.1,0.2,0.2c0.1,0.1,0.1,0.2,0.2,0.2l2,2.8v-3
			c0-0.2,0-0.3,0.1-0.4c0,0,0,0,0,0L27,7.2C27,7.2,27,7.2,27,7.2z M27,7.2C27,7.2,27,7.2,27,7.2C27,7.2,27,7.2,27,7.2z M21,6.9
			l0.5,0c0.2,0,0.3-0.1,0.3-0.3V3.7c0-0.1,0.1-0.3,0.2-0.4c0.1-0.1,0.2-0.2,0.4-0.2L23,3c0.1,0,0.3,0,0.4,0.1
			c0.1,0.1,0.2,0.2,0.2,0.4v2.9c0,0.2,0.1,0.3,0.3,0.2l0.5,0c0,0,0.1,0,0.1,0c0.2-0.1,0.2-0.2,0.2-0.3V3.4c0-0.1,0.1-0.3,0.2-0.4
			c0.1-0.1,0.2-0.2,0.4-0.2l0.7-0.1c0.1,0,0.3,0,0.4,0.1c0.1,0.1,0.2,0.2,0.2,0.4v2.9c0,0.2,0.1,0.3,0.3,0.2l0.5,0
			c0.2,0,0.3-0.1,0.3-0.3V3.1c0-0.4-0.2-0.8-0.5-1c-0.3-0.2-0.7-0.3-1.1-0.3l-0.7,0.1c-0.4,0-0.8,0.2-1.1,0.5
			c-0.3-0.2-0.7-0.3-1.1-0.3l-0.7,0.1c-0.4,0-0.8,0.2-1.2,0.5c-0.3,0.3-0.5,0.7-0.5,1.1v2.9C20.7,6.8,20.8,6.9,21,6.9z M35.3,5.2
			c0.3,0.2,0.7,0.3,1.1,0.3c0.6-0.1,1.1-0.2,1.4-0.3C38,5.1,38.1,5,38.1,4.9V4.6c0-0.2-0.2-0.3-0.3-0.2c-0.3,0.1-0.8,0.2-1.3,0.2
			c-0.1,0-0.3,0-0.4-0.1c-0.1-0.1-0.2-0.2-0.2-0.4V2.4c0-0.1,0.1-0.3,0.2-0.4c0.1-0.1,0.2-0.2,0.4-0.2c0.5,0,1,0,1.3,0
			c0.2,0,0.3-0.1,0.3-0.3V1.2c0-0.1-0.1-0.2-0.2-0.2c-0.3-0.1-0.8-0.1-1.4-0.1c-0.4,0-0.8,0.2-1.2,0.5c-0.3,0.3-0.5,0.7-0.5,1.1v1.7
			C34.8,4.6,35,5,35.3,5.2z M42.2,0.8c-0.3-0.2-0.7-0.3-1.1-0.3c-0.6,0.1-1,0.1-1.3,0.2c-0.2,0.1-0.2,0.2-0.2,0.3v0.4
			c0,0.1,0,0.1,0.1,0.2c0,0.1,0.1,0.1,0.2,0.1c0,0,0,0,0.1,0c0.2-0.1,0.6-0.1,1.2-0.2c0.1,0,0.3,0,0.4,0.1c0.1,0.1,0.2,0.2,0.2,0.4
			v0.2l-1.2,0.1c-0.4,0-0.8,0.2-1.2,0.5c-0.3,0.3-0.5,0.7-0.5,1.1c0,0.4,0.2,0.8,0.5,1c0.3,0.2,0.7,0.3,1.1,0.3L42.4,5
			c0.2,0,0.3-0.1,0.3-0.3V1.8C42.7,1.4,42.5,1,42.2,0.8z M41.6,4.1l-1.2,0.1c-0.1,0-0.3,0-0.4-0.1c-0.1-0.1-0.2-0.2-0.2-0.4
			c0-0.1,0.1-0.3,0.2-0.4c0.1-0.1,0.2-0.2,0.4-0.2l1.2-0.1V4.1L41.6,4.1z M33,7.4l-0.7,0.1v3.4l0.8-0.1c0.2,0,0.3,0,0.4,0
			c0.1,0,0.2,0,0.3-0.1c0.1,0,0.2-0.1,0.3-0.2c0.3-0.3,0.5-0.8,0.5-1.5c0-0.5-0.1-0.9-0.2-1.1c-0.1-0.2-0.3-0.4-0.6-0.4
			C33.6,7.4,33.3,7.4,33,7.4z M18.7,1.7l0.9-0.1c0.2,0,0.3-0.1,0.3-0.3V0.9c0-0.1-0.1-0.3-0.3-0.2l-0.9,0.1c-0.2,0-0.3,0.2-0.3,0.3
			v0.4C18.4,1.6,18.5,1.7,18.7,1.7z M28.1,2c0.1,0,0.1-0.1,0.2-0.1L29.3,3l-0.6,0.2c0-0.1-0.1-0.1-0.1-0.2c-0.2-0.1-0.4-0.1-0.5,0.1
			c-0.1,0.2-0.1,0.4,0,0.5c0.2,0.1,0.4,0.1,0.5-0.1c0,0,0.1-0.1,0.1-0.2l0.6,0.3c0,0,0,0,0,0c0,1.4,1.1,2.4,2.5,2.3
			c1.4-0.1,2.5-1.3,2.5-2.7S33.2,0.9,31.8,1c-0.5,0-1,0.2-1.4,0.6l-0.5-0.4C29.9,1.1,30,1,30,1c0-0.2-0.2-0.4-0.4-0.4
			c-0.2,0-0.4,0.2-0.4,0.4c0,0.2,0.2,0.4,0.4,0.4c0.1,0,0.1,0,0.2,0l0.1,0.7l-1.5-0.5c0-0.1,0-0.2,0-0.2c-0.1-0.2-0.4-0.3-0.6-0.2
			c-0.2,0.1-0.3,0.4-0.2,0.6C27.6,2,27.9,2.1,28.1,2z M32.4,4.4c0.2,0,0.3,0.1,0.3,0.3c0,0.2-0.1,0.3-0.3,0.4
			c-0.2,0-0.3-0.1-0.3-0.3C32.1,4.5,32.2,4.4,32.4,4.4z M31.2,4.5c0.2,0,0.3,0.1,0.3,0.3c0,0.2-0.1,0.3-0.3,0.4
			c-0.2,0-0.3-0.1-0.3-0.3C30.9,4.6,31,4.5,31.2,4.5z M33.8,6.6C33.8,6.6,33.8,6.6,33.8,6.6C33.8,6.6,33.8,6.6,33.8,6.6z M31.7,6.8
			C31.7,6.8,31.7,6.8,31.7,6.8L31.7,6.8L31.7,6.8z M33.8,6.6C33.8,6.6,33.8,6.6,33.8,6.6C33.8,6.6,33.8,6.6,33.8,6.6z M40.2,10.1
			C40.2,10.1,40.2,10.2,40.2,10.1C40.2,10.2,40.2,10.1,40.2,10.1z M39.4,11c-0.3,0.2-0.7,0.3-1.1,0.3c-0.5,0-0.9,0-1.2-0.2
			c-0.2-0.1-0.4-0.3-0.6-0.5c-0.1-0.2-0.2-0.4-0.2-0.6c0-0.1,0-0.2,0.1-0.3c0.1-0.1,0.2-0.1,0.3-0.2c0.1,0,0.2,0,0.3,0.1
			c0.1,0.1,0.1,0.2,0.2,0.3c0.1,0.2,0.1,0.3,0.2,0.4c0.1,0.1,0.2,0.2,0.3,0.2c0.1,0.1,0.3,0.1,0.5,0.1c0.3,0,0.5-0.1,0.7-0.3
			c0.2-0.2,0.3-0.3,0.3-0.5c0-0.2-0.1-0.3-0.2-0.4c-0.1-0.1-0.2-0.2-0.4-0.2c-0.2,0-0.4-0.1-0.6-0.1c-0.4-0.1-0.7-0.1-0.9-0.2
			c-0.2-0.1-0.4-0.2-0.6-0.4c-0.1-0.2-0.2-0.4-0.2-0.7c0-0.3,0.1-0.5,0.2-0.8c0.2-0.2,0.4-0.4,0.7-0.5c0.1,0,0.2-0.1,0.3-0.1
			l-3.8,0.3c0.1,0,0.3,0,0.4,0c0.2,0,0.5,0.1,0.7,0.3c0.5,0.4,0.8,1.1,0.8,2c0,0.3,0,0.6-0.1,0.8c-0.1,0.3-0.1,0.5-0.2,0.7
			c-0.1,0.2-0.3,0.4-0.4,0.6c-0.1,0.1-0.3,0.2-0.4,0.3c-0.2,0.1-0.3,0.2-0.5,0.2c-0.2,0-0.4,0.1-0.6,0.1L32,11.7c-0.2,0-0.3,0-0.4,0
			c-0.1,0-0.2-0.1-0.2-0.2c0-0.1,0-0.2,0-0.4V7.4c0-0.2,0-0.4,0.1-0.5c0-0.1,0.1-0.1,0.2-0.1l-1.6,0.1c0,0,0,0,0,0
			c0.1,0.1,0.1,0.2,0.1,0.4v4c0,0.4-0.2,0.7-0.5,0.7c-0.1,0-0.2,0-0.2,0c-0.1,0-0.1-0.1-0.2-0.1c-0.1-0.1-0.1-0.1-0.2-0.2
			c-0.1-0.1-0.1-0.1-0.2-0.2l-1.9-2.8v2.9c0,0.2,0,0.3-0.1,0.4c-0.1,0.1-0.2,0.2-0.3,0.2c-0.1,0-0.3,0-0.3-0.1
			C26,12.1,26,11.9,26,11.7V7.9c0-0.2,0-0.3,0.1-0.4c0-0.1,0.1-0.1,0.1-0.2l-2.8,0.2c0,0,0.1,0.1,0.1,0.1c0.1,0.1,0.1,0.2,0.1,0.3
			c0,0.1,0.1,0.2,0.2,0.4l1.3,3.1c0.1,0.2,0.2,0.4,0.2,0.5c0,0.1,0,0.2-0.1,0.3c-0.1,0.1-0.2,0.2-0.4,0.2c-0.1,0-0.1,0-0.2,0
			c-0.1,0-0.1-0.1-0.1-0.1c0,0-0.1-0.1-0.1-0.2c0-0.1-0.1-0.2-0.1-0.3l-0.2-0.6l-2,0.2L21.6,12c-0.1,0.3-0.2,0.4-0.2,0.5
			c-0.1,0.1-0.2,0.1-0.3,0.2c-0.1,0-0.2,0-0.3-0.1c-0.1-0.1-0.1-0.2-0.1-0.3c0-0.1,0-0.1,0-0.2c0-0.1,0.1-0.2,0.1-0.3L22,8.4
			c0-0.1,0.1-0.2,0.1-0.3c0.1-0.1,0.1-0.2,0.2-0.3c0,0,0.1-0.1,0.1-0.1l-3.3,0.3c0,0,0.1,0,0.1,0c0.2,0.1,0.3,0.1,0.4,0.3
			c0.1,0.1,0.2,0.2,0.3,0.4C19.9,8.7,20,8.9,20,9.1c0,0.4-0.1,0.7-0.3,0.9c-0.2,0.2-0.5,0.4-1,0.6c0.2,0.1,0.4,0.2,0.5,0.4
			c0.2,0.2,0.3,0.4,0.4,0.6c0.1,0.2,0.2,0.4,0.3,0.5c0.1,0.2,0.1,0.3,0.1,0.3c0,0.1,0,0.1-0.1,0.2c0,0.1-0.1,0.1-0.2,0.2
			c-0.1,0-0.2,0.1-0.3,0.1c-0.1,0-0.2,0-0.3-0.1c-0.1,0-0.1-0.1-0.2-0.2c-0.1-0.1-0.1-0.2-0.2-0.3l-0.4-0.6
			c-0.1-0.2-0.3-0.4-0.4-0.5c-0.1-0.1-0.2-0.2-0.4-0.2c-0.1,0-0.3,0-0.4,0l-0.4,0v1.6c0,0.2,0,0.4-0.1,0.5c-0.1,0.1-0.2,0.2-0.4,0.2
			c-0.2,0-0.3,0-0.4-0.1c-0.1-0.1-0.1-0.2-0.1-0.5V8.7c0-0.2,0-0.4,0.1-0.5c0,0,0,0,0,0l-2,0.2c0,0,0.1,0,0.1,0.1
			c0.1,0.1,0.2,0.1,0.3,0.2c0.1,0.1,0.2,0.2,0.2,0.3c0,0.1,0.1,0.3,0.1,0.4c0,0.5-0.3,0.9-0.8,1.2c0.7,0.2,1,0.5,1,1.1
			c0,0.3-0.1,0.5-0.2,0.8c-0.1,0.2-0.3,0.4-0.6,0.5c-0.2,0.1-0.3,0.1-0.5,0.2c-0.2,0-0.4,0.1-0.7,0.1l-1.5,0.1c-0.2,0-0.4,0-0.5-0.1
			c0,0,0,0,0,0v0.2c0,0,0,0,0.1,0c1.3,0.3,23.4,6.1,23.4,6.1l5.9-9.2v-0.3c0,0.1-0.1,0.2-0.1,0.2C39.9,10.6,39.7,10.8,39.4,11z
			 M14,8.3C14,8.3,14,8.3,14,8.3C14,8.3,14,8.3,14,8.3z M19.4,2.4l-0.5,0c-0.2,0-0.3,0.2-0.3,0.3v4.1c0,0.2,0.1,0.3,0.3,0.2l0.5,0
			c0.2,0,0.3-0.1,0.3-0.3V2.7C19.7,2.5,19.6,2.4,19.4,2.4z M40.2,7.1C40.1,7.1,40.1,7.2,40.2,7.1C40.1,7.2,40.1,7.2,40.2,7.1
			c-0.1,0.2-0.1,0.3-0.2,0.4c-0.1,0.1-0.2,0.2-0.3,0.2c-0.1,0-0.2,0-0.3-0.1c-0.1-0.1-0.1-0.1-0.2-0.3C39.1,7.2,39,7,38.9,6.9
			c-0.1-0.1-0.3-0.1-0.6-0.1c-0.3,0-0.5,0.1-0.6,0.2c-0.2,0.1-0.2,0.3-0.2,0.4c0,0.1,0,0.2,0.1,0.3c0.1,0.1,0.1,0.1,0.2,0.2
			C37.8,8,37.9,8,38,8c0.1,0,0.3,0.1,0.5,0.1c0.3,0,0.5,0.1,0.8,0.2c0.2,0.1,0.4,0.1,0.6,0.2c0.2,0.1,0.3,0.2,0.4,0.4c0,0,0,0,0,0
			L40.2,7.1C40.2,7.2,40.2,7.1,40.2,7.1z M12.6,7.4V4.5c0-0.4-0.2-0.8-0.5-1c-0.3-0.2-0.7-0.3-1.1-0.3c-0.6,0.1-1,0.1-1.3,0.2
			C9.5,3.5,9.5,3.6,9.5,3.7V4c0,0.1,0,0.1,0.1,0.2c0,0.1,0.1,0.1,0.2,0.1c0,0,0,0,0.1,0C10,4.2,10.4,4.2,11,4.1c0.1,0,0.3,0,0.4,0.1
			c0.1,0.1,0.2,0.2,0.2,0.4v0.2l-1.2,0.1C9.8,5,9.4,5.2,9.1,5.5C8.8,5.8,8.6,6.1,8.6,6.6c0,0.4,0.2,0.8,0.5,1
			c0.3,0.2,0.7,0.3,1.1,0.3l2.1-0.2C12.5,7.7,12.6,7.6,12.6,7.4z M11.5,6.8l-1.2,0.1c-0.1,0-0.3,0-0.4-0.1C9.8,6.7,9.7,6.6,9.7,6.5
			c0-0.1,0.1-0.3,0.2-0.4C10,6,10.1,5.9,10.3,5.9l1.2-0.1V6.8z M16.9,10.1l0.9-0.1c0.2,0,0.5-0.1,0.6-0.1c0.2-0.1,0.3-0.1,0.4-0.2
			c0.1-0.1,0.1-0.3,0.1-0.4c0-0.1,0-0.3-0.1-0.4c-0.1-0.1-0.2-0.2-0.3-0.2c-0.1,0-0.4,0-0.7,0l-0.9,0.1L16.9,10.1L16.9,10.1z
			 M13.9,7.6l0.5,0c0.2,0,0.3-0.1,0.3-0.3V4.3c0-0.1,0.1-0.3,0.2-0.4c0.1-0.1,0.2-0.2,0.4-0.2L16,3.7c0.1,0,0.3,0,0.4,0.1
			c0.1,0.1,0.2,0.2,0.2,0.4V7c0,0.2,0.1,0.3,0.3,0.2l0.5,0c0.2,0,0.3-0.1,0.3-0.3V4c0-0.4-0.2-0.8-0.5-1c-0.3-0.2-0.7-0.3-1.1-0.3
			l-0.7,0.1c-0.4,0-0.8,0.2-1.2,0.5c-0.3,0.3-0.5,0.7-0.5,1.1v2.9C13.6,7.5,13.7,7.6,13.9,7.6z M13.7,11.2c-0.2-0.1-0.4-0.1-0.8-0.1
			l-1.1,0.1v1.5l1.1-0.1c0.7-0.1,1-0.3,1-0.8C13.9,11.5,13.9,11.3,13.7,11.2z M11.8,10.4l0.9-0.1c0.3,0,0.5-0.1,0.6-0.1
			c0.1-0.1,0.2-0.2,0.3-0.3c0.1-0.1,0.1-0.2,0.1-0.3c0-0.3-0.1-0.4-0.3-0.5C13.3,9.1,13,9,12.6,9.1l-0.8,0.1L11.8,10.4L11.8,10.4z"
			/>
	</g>
</g>
</svg>
